<svg xmlns="http://www.w3.org/2000/svg" xmlns:xlink="http://www.w3.org/1999/xlink" width="846" height="614" viewBox="0 0 846 614" fill="none">
<rect  x="0" y="0" width="846" height="614" rx="50"    fill="#E5E5E5" opacity="0.8">
</rect>
<path     fill="#3B4CC0"  d="M16.0454 294.801L55.9283 294.664L67.3232 294.343L74.6488 293.889L81.16 293.202L86.8568 292.289L91.7405 291.203L95.8099 290.045L99.8805 288.624L103.95 286.917L108.019 284.908L112.089 282.595L116.159 279.987L121.043 276.5L126.74 272.024L134.065 265.858L146.275 255.533L151.971 251.085L156.855 247.586L161.739 244.411L166.623 241.555L172.319 238.583L178.832 235.554L187.785 231.752L208.947 222.863L231.737 213.147L241.503 209.322L250.458 206.105L258.596 203.483L265.107 201.654L271.619 200.127L277.317 199.088L282.201 198.454L287.084 198.084L291.968 198L296.852 198.224L301.734 198.775L305.805 199.494L309.874 200.458L313.943 201.672L318.827 203.457L323.711 205.594L328.595 208.065L333.478 210.836L339.175 214.389L346.501 219.315L366.036 232.678L371.732 236.174L377.431 239.334L382.314 241.738L387.197 243.844L392.08 245.648L396.964 247.159L401.848 248.399L407.546 249.54L413.243 250.402L419.754 251.119L427.894 251.72L436.847 252.104L445.8 252.228L453.94 252.067L461.264 251.652L468.59 250.951L476.73 249.867L488.125 248.02L501.147 245.958L510.1 244.83L519.868 243.897L540.216 242.057L548.356 240.985L557.309 239.501L583.355 234.909L593.121 233.67L606.958 231.955L612.656 230.959L617.54 229.848L622.423 228.452L627.307 226.756L632.191 224.778L638.702 221.802L652.539 215.295L656.608 213.709L660.677 212.449L663.934 211.745L667.189 211.365L669.63 211.322L672.072 211.505L674.514 211.931L676.956 212.612L679.398 213.559L681.84 214.777L684.282 216.27L686.724 218.035L689.98 220.802L693.235 224.017L696.491 227.638L700.56 232.656L705.444 239.225L713.583 250.823L720.908 261.065L725.792 267.372L729.861 272.153L733.931 276.431L737.187 279.464L740.443 282.147L743.698 284.483L746.954 286.489L750.209 288.185L753.466 289.6L757.535 291.018L761.604 292.102L765.675 292.913L770.559 293.603L776.255 294.122L783.581 294.493L794.161 294.714L815.324 294.797L829.161 294.802">
</path>
<path d="M55.8923 292.397L16.0376 292.534L16.0532 297.068L55.964 296.93L67.4252 296.608L74.838 296.149L81.4586 295.45L87.2825 294.517L92.2972 293.402L96.4944 292.207L100.693 290.741L104.891 288.98L109.082 286.912L113.261 284.537L117.43 281.865L122.402 278.315L128.17 273.783L135.525 267.592L147.704 257.292L153.329 252.9L158.133 249.459L162.929 246.341L167.719 243.54L173.322 240.617L179.753 237.626L188.671 233.839L209.825 224.954L232.595 215.246L242.3 211.445L251.188 208.251L259.25 205.654L265.673 203.85L272.081 202.347L277.666 201.329L282.432 200.71L287.189 200.349L291.935 200.268L296.672 200.485L301.409 201.019L305.345 201.715L309.288 202.649L313.229 203.824L317.982 205.562L322.743 207.646L327.523 210.063L332.318 212.785L337.942 216.292L345.235 221.196L364.802 234.581L370.589 238.132L376.379 241.344L381.364 243.798L386.354 245.949L391.352 247.795L396.349 249.342L401.346 250.61L407.153 251.774L412.949 252.65L419.546 253.377L427.761 253.984L436.782 254.371L445.806 254.495L454.026 254.333L461.436 253.913L468.847 253.204L477.061 252.11L488.487 250.257L501.466 248.202L510.349 247.084L520.083 246.154L540.466 244.311L548.689 243.227L557.679 241.737L583.694 237.151L593.406 235.919L607.292 234.198L613.102 233.182L618.103 232.044L623.107 230.614L628.104 228.878L633.087 226.86L639.644 223.864L653.433 217.379L657.355 215.85L661.253 214.644L664.305 213.984L667.34 213.63L669.565 213.59L671.792 213.758L674.013 214.145L676.24 214.766L678.48 215.634L680.74 216.762L683.024 218.158L685.323 219.82L688.446 222.474L691.593 225.582L694.766 229.111L698.769 234.047L703.587 240.528L703.624 240.578L711.727 252.125L719.089 262.419L724.031 268.802L728.175 273.67L732.335 278.043L735.692 281.17L739.059 283.944L742.441 286.372L745.834 288.462L749.232 290.233L752.639 291.713L756.869 293.186L761.09 294.311L765.294 295.149L770.297 295.856L776.095 296.384L783.499 296.759L794.114 296.981L815.315 297.064L829.159 297.069L829.161 292.535L815.332 292.53L794.208 292.448L783.662 292.227L776.415 291.86L770.82 291.351L766.055 290.677L762.118 289.893L758.2 288.849L754.291 287.487L751.186 286.138L748.074 284.517L744.955 282.595L741.826 280.349L738.681 277.759L735.525 274.819L731.547 270.636L727.552 265.943L722.727 259.712L715.438 249.521L707.281 237.897L702.351 231.265L698.215 226.165L694.875 222.451L691.512 219.129L688.123 216.25L685.538 214.381L682.939 212.792L680.315 211.483L677.672 210.458L675.014 209.717L672.352 209.253L669.695 209.053L667.036 209.101L663.562 209.506L660.101 210.254L655.86 211.567L651.643 213.211L637.759 219.74L631.293 222.695L626.509 224.633L621.739 226.289L616.976 227.651L612.208 228.736L606.622 229.713L592.835 231.421L583.015 232.666L556.938 237.264L548.022 238.742L539.965 239.804L519.652 241.64L509.85 242.577L500.828 243.713L487.762 245.782L476.398 247.624L468.332 248.698L461.092 249.391L453.853 249.802L445.793 249.96L436.911 249.838L428.026 249.457L419.961 248.861L413.536 248.154L407.938 247.307L402.349 246.187L397.578 244.976L392.808 243.5L388.038 241.738L383.264 239.679L378.481 237.325L372.875 234.215L367.269 230.775L347.765 217.434L340.407 212.486L334.638 208.888L329.666 206.066L324.677 203.543L319.671 201.352L314.657 199.519L310.459 198.267L306.263 197.273L302.058 196.53L297.03 195.963L292 195.732L286.979 195.818L281.968 196.199L276.967 196.848L271.156 197.907L264.541 199.458L257.942 201.312L249.726 203.959L240.706 207.199L230.879 211.049L208.069 220.773L186.898 229.666L177.91 233.483L171.316 236.549L165.525 239.571L160.548 242.481L155.576 245.713L150.613 249.269L144.844 253.773L132.605 264.124L125.309 270.265L119.683 274.685L114.888 278.109L110.916 280.654L106.957 282.904L103.009 284.853L99.0676 286.506L95.1253 287.883L91.1838 289.005L86.4312 290.061L80.8613 290.954L74.4595 291.63L67.2214 292.078L55.8923 292.397Z" fill-rule="evenodd"  fill="#FFFFFF" >
</path>
<path d="M16.0454 350.179L829.16 350.179L829.16 351.868L16.0454 351.868L16.0454 350.179Z" fill-rule="evenodd"  fill="#7B9FF9" >
</path>
<path     fill="#7B9FF9"  d="M16.0454 349.884L50.2304 349.732L62.4395 349.424L71.3925 348.928L77.9037 348.321L83.6019 347.538L88.4856 346.621L93.3693 345.42L97.4386 344.159L101.508 342.622L105.577 340.772L109.648 338.575L113.717 336.001L117.787 333.024L121.856 329.631L125.925 325.818L129.996 321.598L134.065 316.999L138.949 311.051L145.46 302.59L159.297 284.328L164.181 278.447L168.25 274.003L171.506 270.816L174.761 267.999L178.017 265.583L181.274 263.586L184.529 262.016L186.971 261.119L189.412 260.456L191.854 260.02L195.111 259.774L198.365 259.88L201.622 260.304L204.877 261.005L208.947 262.207L213.83 264.017L219.528 266.469L232.55 272.537L240.69 276.128L247.201 278.699L252.899 280.663L258.596 282.33L264.294 283.678L269.991 284.704L275.689 285.412L281.386 285.827L287.897 285.979L295.223 285.824L304.176 285.32L329.408 283.699L337.548 283.566L344.873 283.751L351.384 284.189L357.896 284.892L365.221 285.978L373.36 287.485L384.756 289.915L427.08 299.456L447.428 304.139L454.753 305.497L460.451 306.278L465.335 306.695L470.219 306.842L475.101 306.692L479.985 306.232L484.869 305.468L489.752 304.416L495.45 302.88L501.962 300.81L511.729 297.366L528.008 291.628L545.099 285.681L551.611 283.057L557.309 280.444L563.005 277.497L569.518 273.764L586.61 263.632L590.679 261.627L594.75 259.967L598.005 258.94L601.261 258.215L604.516 257.817L607.772 257.759L611.028 258.041L614.283 258.657L617.54 259.588L620.794 260.806L624.865 262.676L628.935 264.857L634.631 268.268L657.422 282.389L668.817 288.753L677.77 293.878L684.282 297.961L689.98 301.883L695.677 306.148L702.188 311.377L724.164 329.439L729.048 332.959L733.931 336.136L738.814 338.931L742.885 340.958L746.954 342.711L751.024 344.201L755.907 345.666L760.791 346.818L765.675 347.703L771.372 348.457L777.883 349.036L786.023 349.467L797.418 349.746L816.138 349.87L829.161 349.884">
</path>
<path d="M50.2203 347.465L16.0353 347.617L16.0555 352.151L50.2405 351.999L62.5307 351.69L71.5606 351.19L78.1635 350.573L83.9655 349.776L88.9658 348.838L93.9761 347.605L98.1753 346.304L102.378 344.716L106.586 342.804L110.794 340.533L114.994 337.876L119.183 334.811L123.358 331.33L127.517 327.433L131.661 323.136L135.79 318.47L140.723 312.462L147.256 303.972L161.073 285.737L165.889 279.938L169.88 275.58L173.042 272.484L176.18 269.769L179.288 267.463L182.361 265.578L185.414 264.106L187.659 263.281L189.909 262.67L192.139 262.272L195.159 262.043L198.181 262.143L201.236 262.54L204.316 263.204L208.231 264.359L212.987 266.122L218.6 268.538L231.592 274.592L239.816 278.22L246.415 280.826L252.211 282.824L258.016 284.522L263.832 285.899L269.65 286.946L275.467 287.669L281.277 288.092L287.894 288.247L295.31 288.09L304.303 287.583L329.498 285.965L337.537 285.834L344.768 286.016L351.186 286.448L357.607 287.141L364.848 288.215L372.916 289.708L384.283 292.132L426.581 301.667L446.966 306.359L454.392 307.736L460.2 308.531L465.204 308.959L470.219 309.11L475.242 308.956L480.266 308.482L485.282 307.698L490.286 306.62L496.089 305.055L502.682 302.96L512.482 299.504L528.761 293.766L545.896 287.804L552.507 285.14L558.302 282.483L564.09 279.489L570.645 275.73L587.69 265.627L591.609 263.696L595.52 262.101L598.593 261.131L601.645 260.452L604.674 260.082L607.694 260.027L610.718 260.289L613.759 260.866L616.829 261.743L619.923 262.9L623.855 264.707L627.816 266.83L633.466 270.213L656.272 284.343L667.712 290.732L676.604 295.822L683.036 299.856L688.657 303.725L694.287 307.94L700.768 313.144L722.78 331.236L727.766 334.83L732.748 338.071L737.745 340.931L741.93 343.015L746.115 344.818L750.307 346.353L755.32 347.857L760.328 349.038L765.324 349.943L771.122 350.711L777.722 351.298L785.935 351.733L797.362 352.012L816.123 352.137L829.158 352.151L829.163 347.617L816.153 347.603L797.473 347.48L786.142 347.203L786.078 347.2L778.043 346.775L771.621 346.203L766.025 345.463L761.253 344.598L756.493 343.475L751.739 342.049L747.793 340.604L743.839 338.9L739.883 336.931L735.112 334.2L730.329 331.088L725.548 327.642L703.607 309.609L697.066 304.356L691.302 300.041L685.527 296.066L678.936 291.933L669.922 286.774L658.572 280.435L635.795 266.323L630.053 262.885L625.874 260.645L621.666 258.711L618.249 257.433L614.806 256.449L611.338 255.792L607.849 255.49L604.357 255.553L600.876 255.978L597.416 256.748L593.979 257.833L589.748 259.558L585.529 261.637L568.39 271.797L561.92 275.506L556.315 278.406L550.713 280.974L544.302 283.557L527.254 289.489L510.975 295.228L501.241 298.66L494.811 300.704L489.218 302.212L484.454 303.238L479.703 303.981L474.959 304.428L470.218 304.574L465.465 304.43L460.701 304.024L455.113 303.258L447.888 301.919L427.578 297.244L385.229 287.698L373.802 285.261L365.593 283.741L358.183 282.643L351.582 281.931L344.978 281.486L337.557 281.299L329.316 281.433L304.048 283.056L295.135 283.559L287.899 283.712L281.495 283.562L275.911 283.155L270.332 282.462L264.756 281.458L259.176 280.137L253.587 278.502L247.987 276.572L241.564 274.036L233.507 270.482L220.454 264.4L214.672 261.912L209.663 260.054L205.437 258.807L202.007 258.068L198.549 257.618L195.062 257.504L191.568 257.768L188.915 258.242L186.281 258.957L183.643 259.926L180.185 261.594L176.747 263.703L173.342 266.229L169.97 269.147L166.62 272.426L162.471 276.957L157.52 282.919L143.663 301.207L137.174 309.64L132.339 315.528L128.33 320.059L124.333 324.203L120.353 327.932L116.39 331.236L112.44 334.126L108.502 336.618L104.569 338.74L100.637 340.527L96.7018 342.014L92.7625 343.234L88.0054 344.405L83.2382 345.299L77.6439 346.068L71.2244 346.667L62.3484 347.159L50.2203 347.465Z" fill-rule="evenodd"  fill="#FFFFFF" >
</path>
<path     fill="#C0D4F5"  d="M16.0454 403.846L71.3925 403.712L80.3456 403.39L86.0437 402.935L90.9274 402.276L94.9968 401.458L99.0661 400.321L102.322 399.135L105.577 397.663L108.834 395.873L112.089 393.742L115.345 391.253L118.601 388.401L121.856 385.195L125.925 380.722L129.996 375.804L134.88 369.455L151.971 346.716L156.041 341.964L160.111 337.707L163.366 334.704L166.623 332.085L169.877 329.856L173.134 328.013L176.39 326.54L179.645 325.413L182.901 324.601L186.156 324.07L190.227 323.744L194.296 323.732L199.18 324.042L204.877 324.741L211.389 325.852L221.97 328.011L230.108 329.583L235.806 330.401L240.69 330.8L244.76 330.874L248.829 330.702L253.713 330.188L259.411 329.253L278.131 325.833L283.015 325.352L288.712 325.098L295.223 325.112L309.874 325.28L316.385 325.003L322.896 324.441L341.617 322.594L346.501 322.493L351.384 322.683L356.268 323.185L361.152 323.992L366.036 325.073L371.732 326.612L379.872 329.145L392.895 333.241L398.593 334.746L404.29 335.939L409.173 336.684L414.87 337.257L423.01 337.74L431.149 338.298L436.033 338.888L440.916 339.751L445.8 340.887L452.311 342.705L462.893 345.681L467.777 346.731L471.846 347.334L475.915 347.648L479.985 347.657L484.055 347.371L488.125 346.82L493.009 345.89L511.729 341.928L516.611 341.379L521.495 341.153L526.379 341.23L532.077 341.619L542.658 342.725L550.798 343.464L557.309 343.784L563.82 343.81L571.146 343.519L593.121 342.349L598.819 342.474L604.516 342.869L611.841 343.683L626.493 345.395L632.191 345.747L637.888 345.829L644.399 345.621L659.05 344.957L663.119 345.114L666.375 345.483L669.63 346.132L672.887 347.114L676.142 348.472L679.398 350.235L682.654 352.419L685.909 355.017L689.165 357.998L693.235 362.191L698.118 367.715L711.141 382.831L715.211 387.019L718.466 390.029L721.723 392.699L724.978 395.014L728.234 396.977L731.49 398.601L734.745 399.918L738.001 400.961L742.071 401.938L746.14 402.624L751.024 403.159L757.535 403.549L766.488 403.765L784.395 403.843L829.161 403.846">
</path>
<path d="M71.3491 401.445L16.0399 401.579L16.0509 406.113L71.436 405.979L80.4766 405.654L86.2856 405.19L91.3029 404.513L95.526 403.664L99.76 402.481L103.179 401.236L106.592 399.692L110.002 397.818L113.399 395.594L116.781 393.008L120.144 390.062L123.491 386.766L127.637 382.209L131.768 377.218L136.676 370.837L153.74 348.136L157.722 343.486L161.7 339.325L164.847 336.422L167.975 333.906L171.078 331.782L174.161 330.036L177.229 328.648L180.291 327.589L183.359 326.823L186.429 326.322L190.32 326.011L194.227 325.999L198.969 326.3L204.547 326.985L210.971 328.081L221.516 330.232L229.732 331.819L235.553 332.654L240.577 333.065L244.786 333.141L248.995 332.964L254.015 332.436L259.778 331.49L278.446 328.08L283.176 327.614L288.759 327.365L295.218 327.379L309.909 327.547L316.531 327.266L323.091 326.699L341.751 324.858L346.48 324.761L351.224 324.945L355.967 325.433L360.721 326.219L365.494 327.275L371.099 328.79L379.199 331.309L392.264 335.419L398.07 336.953L403.886 338.171L408.889 338.934L414.689 339.517L422.876 340.003L430.935 340.555L435.699 341.131L440.461 341.973L445.238 343.084L451.701 344.889L462.347 347.883L467.372 348.963L471.592 349.588L475.825 349.915L480.062 349.924L484.287 349.627L488.489 349.059L493.432 348.117L512.091 344.169L516.79 343.64L521.529 343.421L526.283 343.496L531.881 343.878L542.421 344.98L550.639 345.726L557.248 346.051L563.86 346.077L571.235 345.784L593.156 344.618L598.715 344.739L604.312 345.127L611.591 345.936L626.291 347.654L632.104 348.013L637.907 348.096L644.47 347.887L659.057 347.226L662.947 347.376L666.025 347.725L669.08 348.334L672.121 349.251L675.163 350.52L678.224 352.177L681.313 354.249L684.434 356.741L687.585 359.625L691.571 363.732L696.42 369.216L709.467 384.362L713.627 388.642L716.976 391.739L720.345 394.501L723.733 396.911L727.14 398.965L730.557 400.669L733.973 402.052L737.39 403.145L741.617 404.161L745.828 404.87L750.832 405.418L757.439 405.814L766.433 406.031L784.385 406.11L829.16 406.113L829.16 401.579L784.405 401.576L766.542 401.499L757.63 401.284L751.215 400.899L746.451 400.377L742.524 399.716L738.612 398.776L735.516 397.785L732.423 396.533L729.326 394.988L726.221 393.116L723.1 390.896L719.955 388.319L716.795 385.396L712.814 381.3L699.816 366.213L694.898 360.65L690.745 356.372L687.383 353.293L683.995 350.588L680.571 348.292L677.12 346.423L673.652 344.977L670.18 343.931L666.725 343.241L663.29 342.852L659.042 342.688L644.326 343.355L637.867 343.561L632.277 343.481L626.694 343.136L612.091 341.43L604.719 340.611L598.922 340.208L593.085 340.081L571.055 341.254L563.779 341.543L557.368 341.518L550.955 341.202L542.893 340.471L532.272 339.361L526.474 338.965L521.46 338.885L516.432 339.118L511.366 339.688L492.584 343.663L487.76 344.582L483.823 345.114L479.907 345.39L476.005 345.381L472.099 345.08L468.181 344.499L463.438 343.48L452.92 340.522L446.362 338.69L441.37 337.529L436.366 336.644L431.362 336.04L423.144 335.477L415.05 334.996L409.457 334.435L404.693 333.708L399.115 332.539L393.524 331.062L380.545 326.98L372.365 324.435L366.576 322.871L361.582 321.765L356.569 320.937L351.544 320.42L346.521 320.225L341.482 320.329L322.701 322.182L316.239 322.74L309.838 323.012L295.227 322.845L288.663 322.831L282.853 323.09L277.816 323.586L259.043 327.016L253.41 327.941L248.662 328.44L244.732 328.606L240.803 328.534L236.06 328.147L230.484 327.347L222.422 325.789L211.806 323.623L205.205 322.497L199.39 321.783L194.364 321.464L190.132 321.478L185.882 321.817L182.443 322.379L178.998 323.238L175.55 324.431L172.106 325.99L168.676 327.931L165.269 330.264L161.885 332.985L158.522 336.088L154.359 340.442L150.202 345.296L133.082 368.073L128.223 374.389L124.212 379.236L120.22 383.623L117.057 386.739L113.908 389.498L110.778 391.891L107.665 393.928L104.563 395.634L101.466 397.034L98.3722 398.161L94.4676 399.252L90.552 400.04L85.8019 400.68L80.2145 401.126L71.3491 401.445Z" fill-rule="evenodd"  fill="#FFFFFF" >
</path>
<path     fill="#F2CBB7"  d="M16 455.633L83.5564 455.488L101.463 455.165L113.672 454.665L122.625 454.042L130.764 453.2L138.089 452.142L144.6 450.901L150.298 449.54L155.995 447.883L161.693 445.898L166.577 443.909L171.461 441.643L176.345 439.089L181.228 436.242L186.925 432.561L192.623 428.516L199.134 423.5L206.46 417.475L230.063 397.686L235.761 393.48L240.645 390.248L244.714 387.873L248.783 385.825L252.854 384.134L256.109 383.054L259.365 382.226L262.62 381.656L265.876 381.344L269.133 381.291L272.388 381.49L275.644 381.936L279.713 382.821L283.783 384.046L287.852 385.574L292.736 387.755L297.619 390.245L304.131 393.907L329.362 408.524L335.06 411.3L339.944 413.404L344.828 415.227L349.712 416.758L354.595 417.99L359.478 418.928L364.361 419.586L369.245 419.982L374.943 420.143L380.64 420.022L387.151 419.599L395.291 418.755L406.686 417.245L424.592 414.874L434.36 413.887L443.313 413.262L453.08 412.87L466.917 412.643L479.939 412.355L487.265 411.937L493.776 411.289L499.474 410.438L504.358 409.452L509.242 408.194L514.125 406.633L519.008 404.74L523.892 402.492L528.775 399.869L533.659 396.861L538.543 393.462L543.427 389.677L548.31 385.519L553.194 381.01L558.891 375.353L565.402 368.452L574.355 358.465L589.006 342.032L594.704 336.049L599.588 331.284L603.657 327.641L607.727 324.352L611.796 321.466L615.052 319.479L618.307 317.801L621.563 316.447L624.82 315.435L628.075 314.776L631.331 314.479L634.586 314.551L637.842 314.993L641.098 315.805L644.353 316.983L647.61 318.52L650.865 320.404L654.121 322.622L657.377 325.158L661.446 328.747L665.516 332.763L669.585 337.16L674.469 342.868L680.167 350.01L687.492 359.729L713.537 394.896L720.048 402.938L725.747 409.522L731.445 415.628L736.327 420.454L741.211 424.895L746.095 428.945L750.978 432.609L755.862 435.895L760.746 438.822L765.629 441.405L770.513 443.668L775.397 445.636L781.094 447.592L786.792 449.223L792.489 450.568L799 451.805L806.325 452.879L814.465 453.755L823.418 454.428L829.115 454.735">
</path>
<path d="M83.5516 453.22L15.9951 453.365L16.0048 457.899L83.5613 457.755L101.529 457.431L113.797 456.929L122.82 456.301L131.042 455.449L138.464 454.378L145.076 453.118L150.879 451.731L156.685 450.043L162.494 448.019L167.482 445.988L172.464 443.676L177.441 441.073L182.415 438.174L188.197 434.437L193.972 430.338L200.547 425.274L207.9 419.225L231.466 399.468L237.061 395.338L241.843 392.174L245.796 389.867L249.729 387.887L253.647 386.26L256.746 385.231L259.841 384.445L262.924 383.904L266.003 383.609L269.082 383.559L272.164 383.748L275.249 384.171L279.145 385.018L283.057 386.195L286.99 387.672L291.758 389.801L296.548 392.244L303.019 395.883L328.296 410.526L334.115 413.361L339.099 415.508L344.092 417.372L349.095 418.94L354.104 420.203L359.112 421.165L364.118 421.841L369.121 422.246L374.935 422.41L380.738 422.287L387.342 421.858L395.557 421.006L406.984 419.491L424.855 417.125L434.553 416.146L443.437 415.525L453.144 415.136L466.954 414.909L480.029 414.62L487.442 414.198L494.056 413.539L499.866 412.672L504.865 411.662L509.87 410.374L514.881 408.772L519.893 406.829L524.903 404.522L529.907 401.834L534.902 398.758L539.886 395.289L544.856 391.437L549.815 387.215L554.762 382.647L560.514 376.935L567.071 369.987L576.043 359.978L590.673 343.569L596.318 337.642L601.136 332.941L605.127 329.368L609.096 326.16L613.044 323.361L616.163 321.457L619.264 319.859L622.337 318.581L625.383 317.634L628.404 317.022L631.409 316.749L634.408 316.814L637.414 317.223L640.437 317.977L643.482 319.078L646.556 320.529L649.657 322.324L652.785 324.455L655.929 326.904L659.899 330.405L663.887 334.34L667.892 338.668L672.721 344.312L678.356 351.375L678.395 351.424L685.682 361.093L711.745 396.284L718.31 404.393L724.06 411.037L729.818 417.207L734.767 422.099L739.724 426.607L744.69 430.725L749.664 434.457L754.646 437.809L759.632 440.797L764.622 443.436L769.612 445.748L774.605 447.76L780.413 449.755L786.219 451.417L792.016 452.786L798.624 454.041L806.04 455.128L814.259 456.013L823.249 456.688L828.993 456.999L829.237 452.471L823.588 452.167L814.672 451.497L806.611 450.629L799.376 449.569L792.961 448.35L787.364 447.029L781.774 445.428L776.189 443.51L771.414 441.586L766.637 439.373L761.859 436.846L757.078 433.981L752.292 430.76L747.499 427.164L742.697 423.182L737.888 418.809L733.071 414.047L727.433 408.006L721.787 401.482L715.33 393.507L689.303 358.364L681.958 348.621L676.217 341.424L671.279 335.653L667.145 331.185L662.994 327.089L658.825 323.412L655.457 320.789L652.072 318.483L648.663 316.51L645.225 314.887L641.76 313.634L638.27 312.763L634.764 312.287L631.253 312.21L627.746 312.529L624.257 313.236L620.79 314.314L617.351 315.744L613.941 317.502L610.548 319.572L606.357 322.544L602.188 325.914L598.04 329.628L593.091 334.455L587.339 340.495L572.667 356.952L563.753 366.896L563.713 366.938L557.267 373.77L551.626 379.372L546.805 383.823L541.997 387.917L537.2 391.634L532.416 394.964L527.644 397.903L522.88 400.461L518.123 402.652L513.37 404.495L508.614 406.015L503.851 407.241L499.082 408.205L493.497 409.038L487.088 409.676L479.85 410.09L466.88 410.376L453.016 410.604L443.188 410.998L434.167 411.628L424.33 412.622L406.388 414.997L395.025 416.503L386.961 417.339L380.542 417.756L374.951 417.875L369.369 417.717L364.605 417.331L359.843 416.689L355.087 415.775L350.328 414.575L345.564 413.082L340.789 411.3L336.006 409.239L330.428 406.521L305.242 391.931L298.69 388.247L293.714 385.709L288.714 383.476L284.508 381.896L280.281 380.625L276.039 379.702L272.611 379.233L269.184 379.023L265.75 379.079L262.316 379.407L258.89 380.008L255.472 380.877L252.061 382.009L247.838 383.763L243.632 385.88L239.447 388.322L234.461 391.621L228.66 395.904L205.02 415.723L197.722 421.726L191.275 426.692L185.653 430.683L180.042 434.31L175.248 437.103L170.458 439.608L165.672 441.83L160.892 443.776L155.306 445.722L149.718 447.347L144.124 448.684L137.715 449.905L130.485 450.949L122.429 451.783L113.547 452.401L101.396 452.898L83.5516 453.22Z" fill-rule="evenodd"  fill="#FFFFFF" >
</path>
<path     fill="#EE8468"  d="M17.3372 510.69L55.5913 510.547L66.9875 510.223L75.1262 509.703L81.6374 508.993L87.3355 508.07L92.2192 506.998L97.1017 505.625L101.985 503.919L106.869 501.863L111.753 499.463L116.637 496.747L122.335 493.24L130.473 487.834L142.683 479.684L148.379 476.202L154.078 473.069L158.961 470.709L163.845 468.659L168.729 466.905L174.426 465.184L180.937 463.53L198.03 459.411L202.914 457.899L207.797 456.095L212.681 453.951L217.563 451.457L222.447 448.639L228.958 444.514L240.355 437.179L245.237 434.436L249.308 432.525L252.563 431.308L255.819 430.41L259.074 429.854L262.33 429.657L265.586 429.821L268.841 430.335L272.097 431.176L275.352 432.311L279.423 434.077L284.307 436.576L291.631 440.723L299.771 445.269L304.655 447.711L309.538 449.831L313.608 451.314L317.677 452.529L321.746 453.475L325.817 454.161L330.699 454.664L335.583 454.848L340.467 454.754L346.165 454.35L352.676 453.6L364.886 451.826L374.652 450.548L382.792 449.789L392.559 449.196L403.954 448.488L410.465 447.798L416.162 446.902L421.86 445.689L427.558 444.159L434.069 442.072L443.023 438.832L454.417 434.72L460.114 432.944L464.998 431.678L469.882 430.698L474.765 430.028L479.649 429.675L484.533 429.621L489.417 429.835L495.113 430.356L503.253 431.429L523.601 434.284L533.369 435.275L555.344 437.315L561.855 438.265L568.368 439.505L574.879 441.044L583.018 443.303L600.111 448.182L605.808 449.438L610.691 450.226L615.575 450.694L619.644 450.812L623.715 450.671L627.784 450.27L631.854 449.616L636.737 448.524L641.621 447.143L648.132 444.985L660.342 440.835L664.411 439.748L667.667 439.104L670.922 438.722L674.179 438.656L676.62 438.846L679.062 439.26L681.504 439.915L683.946 440.824L686.388 441.992L688.83 443.426L691.272 445.121L694.526 447.774L697.783 450.848L701.038 454.294L705.107 459.032L710.805 466.207L723.014 481.821L727.898 487.473L731.968 491.719L735.222 494.766L738.479 497.486L741.735 499.876L744.99 501.943L748.246 503.703L751.501 505.179L755.572 506.666L759.641 507.81L763.71 508.671L768.594 509.406L774.292 509.96L781.617 510.358L792.198 510.596L811.732 510.683L830.452 510.69">
</path>
<path d="M55.5548 508.281L17.3288 508.423L17.3457 512.957L55.6278 512.814L67.0921 512.488L75.3215 511.962L81.9418 511.24L87.76 510.298L92.7695 509.198L97.783 507.788L102.8 506.036L107.81 503.927L112.805 501.472L117.782 498.703L123.556 495.151L131.728 489.722L143.903 481.594L149.517 478.163L155.117 475.085L159.894 472.776L164.667 470.773L169.44 469.058L175.033 467.368L181.495 465.727L198.631 461.598L203.642 460.047L208.646 458.198L213.653 456L218.646 453.449L223.62 450.58L230.171 446.429L241.524 439.122L246.275 436.453L250.187 434.616L253.262 433.467L256.312 432.625L259.333 432.109L262.341 431.927L265.352 432.079L268.38 432.557L271.439 433.348L274.527 434.424L278.454 436.128L283.231 438.573L290.514 442.696L298.711 447.274L303.696 449.767L308.698 451.937L312.894 453.467L317.095 454.722L321.301 455.699L325.512 456.408L330.54 456.927L335.562 457.116L340.569 457.02L346.375 456.608L352.969 455.848L365.211 454.07L374.904 452.801L382.965 452.049L392.696 451.459L404.144 450.748L410.761 450.046L416.574 449.132L422.39 447.894L428.198 446.335L434.801 444.218L443.794 440.963L455.139 436.87L460.736 435.125L465.506 433.889L470.259 432.935L475.001 432.284L479.743 431.941L484.496 431.889L489.264 432.097L494.862 432.61L502.957 433.677L523.329 436.535L533.14 437.53L555.075 439.567L561.48 440.501L567.895 441.723L574.315 443.24L582.411 445.487L599.555 450.381L605.382 451.666L610.402 452.476L615.434 452.958L619.651 453.08L623.865 452.934L628.076 452.52L632.281 451.843L637.293 450.722L642.286 449.311L648.846 447.136L661 443.006L664.924 441.958L668.02 441.345L671.077 440.987L674.113 440.925L676.342 441.098L678.578 441.477L680.813 442.077L683.059 442.913L685.322 443.995L687.608 445.337L689.907 446.933L693.03 449.479L696.179 452.452L699.352 455.811L703.359 460.476L709.03 467.617L721.263 483.261L726.221 488.999L730.373 493.332L733.72 496.465L737.08 499.272L740.455 501.749L743.842 503.9L747.238 505.735L750.643 507.279L754.875 508.825L759.099 510.013L763.307 510.903L768.315 511.656L774.121 512.221L781.529 512.624L792.147 512.862L811.722 512.95L830.451 512.957L830.453 508.423L811.742 508.416L792.249 508.329L781.703 508.092L774.463 507.699L768.872 507.155L764.114 506.439L760.183 505.608L756.268 504.507L752.359 503.079L749.254 501.671L746.138 499.987L743.014 498.003L739.877 495.701L736.725 493.068L733.561 490.105L729.575 485.947L724.766 480.38L712.58 464.797L706.855 457.588L702.722 452.776L699.386 449.244L696.022 446.069L692.636 443.308L690.051 441.515L687.453 439.988L684.832 438.735L682.194 437.753L679.546 437.043L676.898 436.593L674.243 436.387L670.767 436.458L667.315 436.862L663.898 437.539L659.684 438.664L647.419 442.833L640.956 444.975L636.181 446.325L631.426 447.388L627.493 448.021L623.564 448.408L619.638 448.544L615.716 448.43L610.98 447.976L606.232 447.21L600.666 445.983L583.624 441.118L575.443 438.847L568.841 437.288L562.231 436.028L555.613 435.063L533.597 433.019L523.873 432.033L503.549 429.181L495.365 428.103L489.569 427.572L484.57 427.354L479.555 427.409L474.529 427.772L469.504 428.462L464.49 429.468L459.492 430.764L453.695 432.571L442.251 436.7L433.337 439.926L426.918 441.984L421.33 443.484L415.749 444.672L410.169 445.55L403.764 446.229L392.422 446.933L382.618 447.528L374.399 448.294L364.559 449.583L352.383 451.352L345.955 452.092L340.365 452.489L335.604 452.58L330.858 452.401L326.122 451.913L322.191 451.251L318.258 450.337L314.321 449.161L310.378 447.724L305.613 445.656L300.831 443.265L292.748 438.75L285.382 434.58L280.391 432.026L276.178 430.198L272.755 429.005L269.302 428.112L265.82 427.563L262.318 427.386L258.814 427.599L255.325 428.194L251.862 429.15L248.427 430.434L244.198 432.419L239.185 435.236L227.745 442.599L221.273 446.699L216.48 449.464L211.708 451.902L206.948 453.992L202.185 455.752L197.428 457.224L180.378 461.333L173.818 462.999L168.017 464.752L163.022 466.546L158.029 468.641L153.037 471.054L147.241 474.24L141.461 477.773L129.219 485.945L121.113 491.33L115.491 494.79L110.701 497.454L105.929 499.8L101.171 501.802L96.4203 503.462L91.669 504.798L86.911 505.842L81.333 506.745L74.9308 507.444L66.8831 507.958L55.5548 508.281Z" fill-rule="evenodd"  fill="#FFFFFF" >
</path>
<path d="M199.709 536.425C201.773 537.642 203.971 538.389 203.971 538.389C206.169 539.135 208.098 539.212 208.098 539.212C210.027 539.29 211.284 538.564 211.284 538.564C212.364 537.941 212.628 536.924 212.628 536.924C212.892 535.908 212.2 534.711 212.2 534.711C211.554 533.592 210.648 533.042 210.648 533.042C209.741 532.492 208.696 532.179 208.696 532.179L209.217 531.04C210.419 531.263 211.813 532.159 211.813 532.159C213.208 533.056 214.047 534.508 214.047 534.508C214.84 535.883 214.884 537.114 214.884 537.114C214.927 538.346 214.383 539.262 214.383 539.262C213.839 540.178 212.877 540.734 212.877 540.734C210.933 541.856 207.804 541.175 207.804 541.175C204.676 540.495 201.425 538.628 201.425 538.628L205.391 544.453L207.476 544.166L207.858 545.28L204.461 546.561L199.054 537.196L199.709 536.425ZM208.546 554.045C207.096 551.532 208.113 549.282 208.113 549.282C209.131 547.032 211.88 545.445 211.88 545.445C213.804 544.334 215.655 544.208 215.655 544.208C217.506 544.082 218.974 544.857 218.974 544.857C220.443 545.632 221.282 547.085 221.282 547.085C222.755 549.637 221.796 551.762 221.796 551.762C220.837 553.886 217.99 555.53 217.99 555.53C216.085 556.629 214.232 556.796 214.232 556.796C212.378 556.963 210.887 556.24 210.887 556.24C209.397 555.517 208.546 554.045 208.546 554.045ZM209.593 553.545C211.282 556.471 216.524 553.444 216.524 553.444C219.076 551.971 220.071 550.519 220.071 550.519C221.065 549.068 220.17 547.517 220.17 547.517C219.297 546.005 217.572 546.033 217.572 546.033C215.847 546.06 213.413 547.466 213.413 547.466C210.919 548.905 209.82 550.469 209.82 550.469C208.72 552.033 209.593 553.545 209.593 553.545ZM213.776 560.79C215.839 562.007 218.037 562.753 218.037 562.753C220.235 563.5 222.165 563.577 222.165 563.577C224.094 563.654 225.351 562.929 225.351 562.929C226.43 562.305 226.694 561.289 226.694 561.289C226.958 560.273 226.267 559.075 226.267 559.075C225.621 557.956 224.714 557.406 224.714 557.406C223.808 556.856 222.763 556.543 222.763 556.543L223.284 555.405C224.486 555.627 225.88 556.524 225.88 556.524C227.275 557.42 228.114 558.873 228.114 558.873C228.907 560.247 228.95 561.479 228.95 561.479C228.994 562.71 228.45 563.626 228.45 563.626C227.905 564.543 226.943 565.098 226.943 565.098C225 566.22 221.871 565.54 221.871 565.54C218.743 564.859 215.492 562.992 215.492 562.992L219.458 568.818L221.543 568.53L221.925 569.645L218.528 570.925L213.121 561.56L213.776 560.79ZM217.815 576.991C217.555 576.539 217.306 575.95 217.306 575.95C217.057 575.361 216.94 574.931 216.94 574.931L218.059 574.285C218.237 575.046 218.758 575.949 218.758 575.949C219.654 577.5 220.796 578.346 220.796 578.346C221.939 579.191 223.129 579.303 223.129 579.303C224.319 579.414 225.32 578.836 225.32 578.836C226.655 578.065 226.921 576.825 226.921 576.825C227.187 575.585 226.232 573.886 226.232 573.886L225.723 573.368C225.153 572.833 225.184 572.841 225.184 572.841L226.032 571.907C226.665 572.641 227.398 573.186 227.398 573.186C228.612 574.108 229.896 574.361 229.896 574.361C231.181 574.614 232.143 574.059 232.143 574.059C233.262 573.413 233.403 572.455 233.403 572.455C233.543 571.497 232.954 570.476 232.954 570.476C232.444 569.592 231.659 568.959 231.659 568.959C230.875 568.326 230.083 567.997 230.083 567.997L230.661 566.957C231.528 567.189 232.745 568.096 232.745 568.096C233.962 569.003 234.688 570.26 234.688 570.26C235.719 572.047 235.579 573.594 235.579 573.594C235.438 575.141 233.848 576.059 233.848 576.059C232.454 576.864 230.68 576.422 230.68 576.422C228.907 575.98 227.504 574.774 227.504 574.774C227.637 574.959 227.841 575.313 227.841 575.313C228.51 576.471 228.588 577.604 228.588 577.604C228.666 578.737 228.207 579.643 228.207 579.643C227.749 580.549 226.826 581.082 226.826 581.082C225.393 581.909 223.756 581.703 223.756 581.703C222.118 581.496 220.568 580.284 220.568 580.284C219.017 579.072 217.815 576.991 217.815 576.991ZM226.788 585.685C226.493 585.174 226.631 584.597 226.631 584.597C226.769 584.02 227.319 583.703 227.319 583.703C227.927 583.352 228.595 583.555 228.595 583.555C229.262 583.759 229.602 584.348 229.602 584.348C229.953 584.956 229.777 585.49 229.777 585.49C229.601 586.024 229.071 586.33 229.071 586.33C228.423 586.704 227.781 586.499 227.781 586.499C227.139 586.293 226.788 585.685 226.788 585.685ZM240.81 586.123C240.415 585.801 239.689 585.042 239.689 585.042C238.963 584.284 238.567 583.779 238.567 583.779L239.553 582.948C240.347 583.825 241.464 584.58 241.464 584.58C242.581 585.336 243.597 585.692 243.597 585.692L243.609 585.711L244.104 587.022L233.031 593.415L234.26 595.952L233.298 596.507L229.217 589.439L230.179 588.884L231.818 591.314L240.81 586.123Z" fill-rule="evenodd"  fill="#000000" >
</path>
<path d="M260.918 535.292C262.982 536.509 265.18 537.255 265.18 537.255C267.378 538.002 269.307 538.079 269.307 538.079C271.237 538.156 272.493 537.431 272.493 537.431C273.573 536.807 273.837 535.791 273.837 535.791C274.101 534.775 273.41 533.577 273.41 533.577C272.764 532.458 271.857 531.908 271.857 531.908C270.951 531.358 269.906 531.045 269.906 531.045L270.427 529.907C271.628 530.129 273.023 531.026 273.023 531.026C274.417 531.922 275.256 533.375 275.256 533.375C276.05 534.749 276.093 535.981 276.093 535.981C276.137 537.212 275.592 538.128 275.592 538.128C275.048 539.045 274.086 539.6 274.086 539.6C272.142 540.722 269.014 540.042 269.014 540.042C265.885 539.361 262.635 537.494 262.635 537.494L266.6 543.32L268.686 543.032L269.067 544.147L265.671 545.427L260.264 536.062L260.918 535.292ZM269.756 552.911C268.305 550.398 269.323 548.148 269.323 548.148C270.341 545.898 273.089 544.312 273.089 544.312C275.013 543.201 276.864 543.074 276.864 543.074C278.715 542.948 280.184 543.723 280.184 543.723C281.652 544.498 282.491 545.951 282.491 545.951C283.965 548.504 283.005 550.628 283.005 550.628C282.046 552.752 279.199 554.396 279.199 554.396C277.295 555.496 275.441 555.663 275.441 555.663C273.588 555.83 272.097 555.107 272.097 555.107C270.606 554.384 269.756 552.911 269.756 552.911ZM270.803 552.412C272.492 555.337 277.734 552.31 277.734 552.31C280.286 550.837 281.28 549.386 281.28 549.386C282.275 547.935 281.379 546.384 281.379 546.384C280.507 544.872 278.782 544.899 278.782 544.899C277.057 544.927 274.622 546.332 274.622 546.332C272.129 547.772 271.029 549.336 271.029 549.336C269.93 550.9 270.803 552.412 270.803 552.412ZM274.985 559.656C277.049 560.873 279.247 561.62 279.247 561.62C281.445 562.366 283.374 562.443 283.374 562.443C285.304 562.521 286.56 561.795 286.56 561.795C287.64 561.172 287.904 560.155 287.904 560.155C288.168 559.139 287.477 557.942 287.477 557.942C286.83 556.823 285.924 556.273 285.924 556.273C285.018 555.723 283.973 555.41 283.973 555.41L284.494 554.271C285.695 554.494 287.09 555.39 287.09 555.39C288.484 556.286 289.323 557.739 289.323 557.739C290.117 559.114 290.16 560.345 290.16 560.345C290.203 561.576 289.659 562.493 289.659 562.493C289.115 563.409 288.153 563.965 288.153 563.965C286.209 565.087 283.081 564.406 283.081 564.406C279.952 563.725 276.702 561.859 276.702 561.859L280.667 567.684L282.752 567.397L283.134 568.511L279.738 569.792L274.331 560.427L274.985 559.656ZM279.025 575.857C278.764 575.406 278.516 574.816 278.516 574.816C278.267 574.227 278.15 573.797 278.15 573.797L279.269 573.151C279.447 573.912 279.968 574.816 279.968 574.816C280.863 576.367 282.006 577.212 282.006 577.212C283.149 578.058 284.339 578.169 284.339 578.169C285.529 578.28 286.53 577.702 286.53 577.702C287.865 576.932 288.131 575.692 288.131 575.692C288.396 574.452 287.441 572.752 287.441 572.752L286.933 572.234C286.362 571.7 286.393 571.708 286.393 571.708L287.241 570.773C287.874 571.507 288.608 572.052 288.608 572.052C289.821 572.975 291.106 573.228 291.106 573.228C292.391 573.481 293.353 572.925 293.353 572.925C294.472 572.279 294.612 571.321 294.612 571.321C294.753 570.363 294.163 569.342 294.163 569.342C293.653 568.459 292.869 567.825 292.869 567.825C292.084 567.192 291.293 566.864 291.293 566.864L291.87 565.823C292.737 566.056 293.955 566.963 293.955 566.963C295.172 567.87 295.897 569.126 295.897 569.126C296.929 570.913 296.788 572.46 296.788 572.46C296.647 574.007 295.057 574.926 295.057 574.926C293.663 575.73 291.89 575.288 291.89 575.288C290.116 574.846 288.713 573.641 288.713 573.641C288.846 573.826 289.05 574.179 289.05 574.179C289.719 575.337 289.797 576.47 289.797 576.47C289.876 577.603 289.417 578.509 289.417 578.509C288.958 579.415 288.036 579.948 288.036 579.948C286.603 580.775 284.965 580.569 284.965 580.569C283.328 580.363 281.777 579.151 281.777 579.151C280.227 577.938 279.025 575.857 279.025 575.857ZM287.997 584.551C287.702 584.041 287.84 583.464 287.84 583.464C287.979 582.887 288.528 582.569 288.528 582.569C289.137 582.218 289.804 582.422 289.804 582.422C290.472 582.625 290.812 583.214 290.812 583.214C291.163 583.823 290.987 584.357 290.987 584.357C290.811 584.89 290.281 585.196 290.281 585.196C289.633 585.57 288.991 585.365 288.991 585.365C288.349 585.16 287.997 584.551 287.997 584.551ZM288.376 592.055C288.116 591.603 287.867 591.014 287.867 591.014C287.618 590.424 287.501 589.995 287.501 589.995L288.62 589.348C288.798 590.11 289.319 591.013 289.319 591.013C290.215 592.564 291.357 593.409 291.357 593.409C292.5 594.255 293.69 594.366 293.69 594.366C294.88 594.478 295.881 593.9 295.881 593.9C297.216 593.129 297.482 591.889 297.482 591.889C297.748 590.649 296.793 588.949 296.793 588.949L296.284 588.431C295.714 587.897 295.745 587.905 295.745 587.905L296.593 586.971C297.226 587.705 297.959 588.25 297.959 588.25C299.173 589.172 300.457 589.425 300.457 589.425C301.742 589.678 302.704 589.123 302.704 589.123C303.823 588.477 303.964 587.518 303.964 587.518C304.104 586.56 303.515 585.539 303.515 585.539C303.005 584.656 302.22 584.023 302.22 584.023C301.436 583.389 300.644 583.061 300.644 583.061L301.222 582.021C302.089 582.253 303.306 583.16 303.306 583.16C304.523 584.067 305.249 585.324 305.249 585.324C306.28 587.11 306.14 588.657 306.14 588.657C305.999 590.205 304.409 591.123 304.409 591.123C303.015 591.928 301.241 591.486 301.241 591.486C299.468 591.044 298.065 589.838 298.065 589.838C298.198 590.023 298.402 590.376 298.402 590.376C299.071 591.535 299.149 592.667 299.149 592.667C299.227 593.8 298.768 594.706 298.768 594.706C298.31 595.612 297.387 596.145 297.387 596.145C295.954 596.973 294.317 596.766 294.317 596.766C292.679 596.56 291.129 595.348 291.129 595.348C289.578 594.136 288.376 592.055 288.376 592.055Z" fill-rule="evenodd"  fill="#000000" >
</path>
<path d="M471.751 533.025C473.815 534.242 476.013 534.988 476.013 534.988C478.211 535.735 480.14 535.812 480.14 535.812C482.07 535.889 483.326 535.164 483.326 535.164C484.406 534.54 484.67 533.524 484.67 533.524C484.934 532.508 484.242 531.31 484.242 531.31C483.596 530.191 482.69 529.641 482.69 529.641C481.783 529.091 480.739 528.778 480.739 528.778L481.26 527.64C482.461 527.862 483.856 528.759 483.856 528.759C485.25 529.655 486.089 531.108 486.089 531.108C486.882 532.482 486.926 533.714 486.926 533.714C486.969 534.945 486.425 535.861 486.425 535.861C485.881 536.778 484.919 537.333 484.919 537.333C482.975 538.455 479.847 537.775 479.847 537.775C476.718 537.094 473.468 535.227 473.468 535.227L477.433 541.053L479.518 540.765L479.9 541.88L476.503 543.16L471.097 533.795L471.751 533.025ZM480.589 550.644C479.138 548.131 480.156 545.881 480.156 545.881C481.173 543.631 483.922 542.045 483.922 542.045C485.846 540.934 487.697 540.807 487.697 540.807C489.548 540.681 491.017 541.456 491.017 541.456C492.485 542.231 493.324 543.684 493.324 543.684C494.797 546.237 493.838 548.361 493.838 548.361C492.879 550.485 490.032 552.129 490.032 552.129C488.128 553.229 486.274 553.396 486.274 553.396C484.42 553.563 482.93 552.84 482.93 552.84C481.439 552.117 480.589 550.644 480.589 550.644ZM481.635 550.145C483.324 553.07 488.566 550.043 488.566 550.043C491.119 548.57 492.113 547.119 492.113 547.119C493.108 545.668 492.212 544.117 492.212 544.117C491.339 542.605 489.614 542.632 489.614 542.632C487.889 542.66 485.455 544.065 485.455 544.065C482.962 545.505 481.862 547.069 481.862 547.069C480.763 548.633 481.635 550.145 481.635 550.145ZM485.818 557.389C487.882 558.606 490.08 559.353 490.08 559.353C492.278 560.099 494.207 560.176 494.207 560.176C496.136 560.254 497.393 559.528 497.393 559.528C498.473 558.905 498.737 557.888 498.737 557.888C499.001 556.872 498.309 555.675 498.309 555.675C497.663 554.555 496.757 554.006 496.757 554.006C495.85 553.456 494.806 553.143 494.806 553.143L495.326 552.004C496.528 552.227 497.923 553.123 497.923 553.123C499.317 554.019 500.156 555.472 500.156 555.472C500.949 556.847 500.993 558.078 500.993 558.078C501.036 559.309 500.492 560.226 500.492 560.226C499.948 561.142 498.986 561.698 498.986 561.698C497.042 562.82 493.914 562.139 493.914 562.139C490.785 561.458 487.535 559.592 487.535 559.592L491.5 565.417L493.585 565.13L493.967 566.244L490.57 567.525L485.163 558.16L485.818 557.389ZM489.858 573.59C489.597 573.139 489.348 572.549 489.348 572.549C489.1 571.96 488.983 571.53 488.983 571.53L490.102 570.884C490.279 571.645 490.801 572.549 490.801 572.549C491.696 574.1 492.839 574.945 492.839 574.945C493.981 575.791 495.171 575.902 495.171 575.902C496.361 576.013 497.363 575.435 497.363 575.435C498.698 574.665 498.963 573.425 498.963 573.425C499.229 572.185 498.274 570.485 498.274 570.485L497.766 569.967C497.195 569.433 497.226 569.441 497.226 569.441L498.074 568.506C498.707 569.24 499.441 569.785 499.441 569.785C500.654 570.708 501.939 570.961 501.939 570.961C503.223 571.214 504.185 570.658 504.185 570.658C505.305 570.012 505.445 569.054 505.445 569.054C505.586 568.096 504.996 567.075 504.996 567.075C504.486 566.192 503.702 565.558 503.702 565.558C502.917 564.925 502.125 564.597 502.125 564.597L502.703 563.556C503.57 563.789 504.787 564.696 504.787 564.696C506.005 565.603 506.73 566.859 506.73 566.859C507.762 568.646 507.621 570.193 507.621 570.193C507.48 571.74 505.89 572.659 505.89 572.659C504.496 573.463 502.723 573.021 502.723 573.021C500.949 572.579 499.546 571.374 499.546 571.374C499.679 571.559 499.883 571.912 499.883 571.912C500.552 573.07 500.63 574.203 500.63 574.203C500.708 575.336 500.25 576.242 500.25 576.242C499.791 577.148 498.868 577.681 498.868 577.681C497.435 578.508 495.798 578.302 495.798 578.302C494.16 578.096 492.61 576.884 492.61 576.884C491.059 575.671 489.858 573.59 489.858 573.59ZM498.83 582.284C498.535 581.774 498.673 581.197 498.673 581.197C498.811 580.62 499.361 580.302 499.361 580.302C499.97 579.951 500.637 580.155 500.637 580.155C501.304 580.358 501.644 580.947 501.644 580.947C501.996 581.556 501.82 582.09 501.82 582.09C501.643 582.623 501.113 582.929 501.113 582.929C500.465 583.303 499.823 583.098 499.823 583.098C499.181 582.893 498.83 582.284 498.83 582.284ZM516.75 584.215C517.703 585.864 517.604 587.439 517.604 587.439C517.506 589.014 516.513 590.333 516.513 590.333C515.521 591.652 513.872 592.604 513.872 592.604C511.28 594.101 508.506 594.237 508.506 594.237C505.731 594.373 503.36 593.373 503.36 593.373C500.989 592.372 499.511 590.582 499.511 590.582L500.114 589.632C502.175 591.478 504.671 591.948 504.671 591.948C507.167 592.418 509.681 591.647 509.681 591.647C508.828 591.485 507.938 590.873 507.938 590.873C507.048 590.262 506.481 589.28 506.481 589.28C505.699 587.925 505.695 586.58 505.695 586.58C505.69 585.234 506.443 584.067 506.443 584.067C507.195 582.899 508.609 582.083 508.609 582.083C510.003 581.278 511.538 581.217 511.538 581.217C513.073 581.155 514.458 581.9 514.458 581.9C515.844 582.644 516.75 584.215 516.75 584.215ZM507.917 589.001C508.529 590.061 509.506 590.597 509.506 590.597C510.483 591.132 511.211 591.078 511.211 591.078L512.148 590.616C514.543 589.233 515.588 587.779 515.588 587.779C516.633 586.324 515.67 584.656 515.67 584.656C515.148 583.753 514.24 583.426 514.24 583.426C513.332 583.1 512.287 583.284 512.287 583.284C511.241 583.469 510.279 584.024 510.279 584.024C508.257 585.192 507.73 586.478 507.73 586.478C507.203 587.764 507.917 589.001 507.917 589.001Z" fill-rule="evenodd"  fill="#000000" >
</path>
<path d="M606.913 532.691C608.977 533.908 611.175 534.655 611.175 534.655C613.373 535.401 615.302 535.478 615.302 535.478C617.231 535.556 618.488 534.83 618.488 534.83C619.568 534.207 619.832 533.19 619.832 533.19C620.096 532.174 619.404 530.977 619.404 530.977C618.758 529.857 617.852 529.307 617.852 529.307C616.945 528.758 615.901 528.444 615.901 528.444L616.421 527.306C617.623 527.529 619.017 528.425 619.017 528.425C620.412 529.321 621.251 530.774 621.251 530.774C622.044 532.149 622.088 533.38 622.088 533.38C622.131 534.611 621.587 535.528 621.587 535.528C621.043 536.444 620.081 536.999 620.081 536.999C618.137 538.122 615.008 537.441 615.008 537.441C611.88 536.76 608.63 534.894 608.63 534.894L612.595 540.719L614.68 540.432L615.062 541.546L611.665 542.827L606.258 533.462L606.913 532.691ZM615.75 550.311C614.3 547.798 615.317 545.548 615.317 545.548C616.335 543.298 619.084 541.711 619.084 541.711C621.008 540.6 622.859 540.474 622.859 540.474C624.71 540.347 626.178 541.123 626.178 541.123C627.647 541.898 628.486 543.351 628.486 543.351C629.959 545.903 629 548.027 629 548.027C628.041 550.152 625.194 551.795 625.194 551.795C623.289 552.895 621.436 553.062 621.436 553.062C619.582 553.229 618.091 552.506 618.091 552.506C616.601 551.783 615.75 550.311 615.75 550.311ZM616.797 549.811C618.486 552.736 623.728 549.71 623.728 549.71C626.28 548.236 627.275 546.785 627.275 546.785C628.269 545.334 627.374 543.783 627.374 543.783C626.501 542.271 624.776 542.299 624.776 542.299C623.051 542.326 620.617 543.732 620.617 543.732C618.123 545.171 617.024 546.735 617.024 546.735C615.924 548.299 616.797 549.811 616.797 549.811ZM620.98 557.056C623.044 558.272 625.242 559.019 625.242 559.019C627.44 559.766 629.369 559.843 629.369 559.843C631.298 559.92 632.555 559.195 632.555 559.195C633.635 558.571 633.898 557.555 633.898 557.555C634.163 556.539 633.471 555.341 633.471 555.341C632.825 554.222 631.919 553.672 631.919 553.672C631.012 553.122 629.967 552.809 629.967 552.809L630.488 551.671C631.69 551.893 633.084 552.789 633.084 552.789C634.479 553.686 635.318 555.139 635.318 555.139C636.111 556.513 636.155 557.745 636.155 557.745C636.198 558.976 635.654 559.892 635.654 559.892C635.109 560.808 634.147 561.364 634.147 561.364C632.204 562.486 629.075 561.805 629.075 561.805C625.947 561.125 622.696 559.258 622.696 559.258L626.662 565.084L628.747 564.796L629.129 565.911L625.732 567.191L620.325 557.826L620.98 557.056ZM625.02 573.257C624.759 572.805 624.51 572.216 624.51 572.216C624.261 571.626 624.144 571.197 624.144 571.197L625.263 570.551C625.441 571.312 625.962 572.215 625.962 572.215C626.858 573.766 628.001 574.612 628.001 574.612C629.143 575.457 630.333 575.568 630.333 575.568C631.523 575.68 632.524 575.102 632.524 575.102C633.859 574.331 634.125 573.091 634.125 573.091C634.391 571.851 633.436 570.152 633.436 570.152L632.927 569.634C632.357 569.099 632.388 569.107 632.388 569.107L633.236 568.173C633.869 568.907 634.602 569.452 634.602 569.452C635.816 570.374 637.1 570.627 637.1 570.627C638.385 570.88 639.347 570.325 639.347 570.325C640.466 569.679 640.607 568.721 640.607 568.721C640.747 567.763 640.158 566.742 640.158 566.742C639.648 565.858 638.863 565.225 638.863 565.225C638.079 564.591 637.287 564.263 637.287 564.263L637.865 563.223C638.732 563.455 639.949 564.362 639.949 564.362C641.167 565.269 641.892 566.526 641.892 566.526C642.923 568.312 642.783 569.86 642.783 569.86C642.642 571.407 641.052 572.325 641.052 572.325C639.658 573.13 637.884 572.688 637.884 572.688C636.111 572.246 634.708 571.04 634.708 571.04C634.841 571.225 635.045 571.578 635.045 571.578C635.714 572.737 635.792 573.87 635.792 573.87C635.87 575.003 635.411 575.909 635.411 575.909C634.953 576.815 634.03 577.347 634.03 577.347C632.597 578.175 630.96 577.968 630.96 577.968C629.322 577.762 627.772 576.55 627.772 576.55C626.221 575.338 625.02 573.257 625.02 573.257ZM633.992 581.951C633.697 581.44 633.835 580.863 633.835 580.863C633.973 580.286 634.523 579.969 634.523 579.969C635.131 579.617 635.799 579.821 635.799 579.821C636.466 580.025 636.806 580.614 636.806 580.614C637.157 581.222 636.981 581.756 636.981 581.756C636.805 582.29 636.275 582.596 636.275 582.596C635.627 582.97 634.985 582.765 634.985 582.765C634.343 582.559 633.992 581.951 633.992 581.951ZM648.014 582.389C647.619 582.067 646.893 581.308 646.893 581.308C646.167 580.55 645.771 580.045 645.771 580.045L646.757 579.214C647.551 580.091 648.668 580.846 648.668 580.846C649.785 581.602 650.801 581.957 650.801 581.957L650.813 581.977L651.308 583.288L640.235 589.681L641.464 592.217L640.502 592.773L636.421 585.705L637.383 585.15L639.022 587.58L648.014 582.389ZM653.001 591.027C652.606 590.706 651.88 589.947 651.88 589.947C651.154 589.188 650.758 588.684 650.758 588.684L651.744 587.853C652.538 588.729 653.655 589.485 653.655 589.485C654.772 590.24 655.789 590.596 655.789 590.596L655.8 590.616L656.295 591.927L645.222 598.319L646.451 600.856L645.489 601.411L641.408 594.344L642.37 593.788L644.009 596.219L653.001 591.027Z" fill-rule="evenodd"  fill="#000000" >
</path>
<path d="M686.943 535.457C689.006 536.674 691.204 537.421 691.204 537.421C693.402 538.167 695.332 538.244 695.332 538.244C697.261 538.322 698.518 537.596 698.518 537.596C699.597 536.973 699.861 535.956 699.861 535.956C700.125 534.94 699.434 533.742 699.434 533.742C698.788 532.623 697.881 532.073 697.881 532.073C696.975 531.524 695.93 531.211 695.93 531.211L696.451 530.072C697.653 530.295 699.047 531.191 699.047 531.191C700.442 532.087 701.281 533.54 701.281 533.54C702.074 534.915 702.117 536.146 702.117 536.146C702.161 537.377 701.617 538.294 701.617 538.294C701.072 539.21 700.11 539.765 700.11 539.765C698.167 540.888 695.038 540.207 695.038 540.207C691.91 539.526 688.659 537.66 688.659 537.66L692.625 543.485L694.71 543.198L695.092 544.312L691.695 545.593L686.288 536.228L686.943 535.457ZM695.78 553.077C694.329 550.564 695.347 548.314 695.347 548.314C696.365 546.064 699.113 544.477 699.113 544.477C701.037 543.366 702.889 543.24 702.889 543.24C704.74 543.113 706.208 543.889 706.208 543.889C707.677 544.664 708.515 546.117 708.515 546.117C709.989 548.669 709.03 550.793 709.03 550.793C708.07 552.918 705.224 554.561 705.224 554.561C703.319 555.661 701.466 555.828 701.466 555.828C699.612 555.995 698.121 555.272 698.121 555.272C696.63 554.549 695.78 553.077 695.78 553.077ZM696.827 552.577C698.516 555.502 703.758 552.476 703.758 552.476C706.31 551.002 707.305 549.551 707.305 549.551C708.299 548.1 707.404 546.549 707.404 546.549C706.531 545.037 704.806 545.065 704.806 545.065C703.081 545.092 700.647 546.498 700.647 546.498C698.153 547.937 697.054 549.501 697.054 549.501C695.954 551.065 696.827 552.577 696.827 552.577ZM701.01 559.822C703.073 561.038 705.271 561.785 705.271 561.785C707.469 562.532 709.399 562.609 709.399 562.609C711.328 562.686 712.584 561.961 712.584 561.961C713.664 561.337 713.928 560.321 713.928 560.321C714.192 559.305 713.501 558.107 713.501 558.107C712.855 556.988 711.948 556.438 711.948 556.438C711.042 555.888 709.997 555.575 709.997 555.575L710.518 554.437C711.72 554.659 713.114 555.555 713.114 555.555C714.509 556.452 715.347 557.905 715.347 557.905C716.141 559.279 716.184 560.51 716.184 560.51C716.228 561.742 715.684 562.658 715.684 562.658C715.139 563.575 714.177 564.13 714.177 564.13C712.234 565.252 709.105 564.571 709.105 564.571C705.977 563.891 702.726 562.024 702.726 562.024L706.692 567.85L708.777 567.562L709.159 568.677L705.762 569.957L700.355 560.592L701.01 559.822ZM710.908 578.87L707.145 572.352L707.733 571.332C710.601 571.221 715.198 570.818 715.198 570.818C719.795 570.415 723.59 570.004 723.59 570.004L723.884 570.515L723.947 572.573L710.677 573.166L709.026 573.072L712.282 578.077L716.156 575.945L717.257 577.535L713.389 579.768L715.125 582.457L713.515 583.386L711.917 580.618L708.756 582.443L707.747 580.695L710.908 578.87ZM714.974 586.366C714.679 585.855 714.817 585.278 714.817 585.278C714.955 584.701 715.505 584.384 715.505 584.384C716.113 584.033 716.781 584.236 716.781 584.236C717.448 584.44 717.788 585.029 717.788 585.029C718.139 585.638 717.963 586.171 717.963 586.171C717.787 586.705 717.257 587.011 717.257 587.011C716.609 587.385 715.967 587.18 715.967 587.18C715.325 586.974 714.974 586.366 714.974 586.366ZM728.996 586.804C728.601 586.482 727.875 585.724 727.875 585.724C727.149 584.965 726.753 584.46 726.753 584.46L727.739 583.629C728.533 584.506 729.65 585.261 729.65 585.261C730.767 586.017 731.783 586.373 731.783 586.373L731.795 586.392L732.29 587.703L721.217 594.096L722.446 596.633L721.484 597.188L717.403 590.12L718.365 589.565L720.004 591.995L728.996 586.804Z" fill-rule="evenodd"  fill="#000000" >
</path>
<g >
<path     fill="#000000"  d="M165.016 44.7891L165.309 44.3789L165.426 44.4375L166.891 43.207L170.406 46.0781L168.824 47.3086L167.887 47.3086L165.426 50.707L162.086 54.6914L158.453 58.4414L157.164 59.6133L159.977 62.0156L163.375 64.3008L166.949 66.293L170.816 67.9922L174.977 69.3984L182.125 71.0977L178.434 74.5547L173.746 73.1484L169.352 71.4492L165.309 69.3398L161.559 66.9961L158.102 64.2422L155.172 61.3711L150.484 65.1211L146.031 68.0508L141.344 70.6875L140.992 70.9219L144.215 72.5039L165.66 72.5039L167.535 70.9219L170.992 73.793L169.41 75.0234L169.41 91.7227L165.66 93.5977L165.66 89.8477L144.215 89.8477L144.215 93.5977L140.465 95.5312L140.465 71.1562L136.422 73.0898L131.207 75.1406L125.699 76.8398L125.582 76.3125L130.738 74.0273L135.719 71.5664L140.348 68.9297L144.742 66.0586L148.844 63.0117L152.652 59.7305L153.297 59.1445L152.184 57.8555L149.723 54.1641L147.672 50.1211L146.5 47.1328L144.215 49.8281L142.34 51.8789L140.348 53.8125L138.238 55.7461L136.012 57.5039L133.668 59.2031L131.148 60.7852L130.797 60.3164L134.898 56.2734L138.648 52.1719L141.988 47.9531L144.918 43.6172L147.438 39.1055L147.613 38.7539L150.777 40.9219L151.305 41.918L150.074 42.0352L149.312 43.2656L148.199 44.7891L165.016 44.7891ZM165.66 88.5586L165.66 73.793L144.215 73.793L144.215 88.5586L165.66 88.5586ZM154.996 57.4453L156.227 56.2148L159.566 52.5234L162.555 48.5977L164.195 46.0781L147.32 46.0781L147.027 46.4297L148.785 49.5352L151.305 53.1094L153.941 56.3906L154.996 57.4453ZM199.586 39.9844L200.934 40.6289L202.164 41.2734L203.395 42.0352L204.508 42.9141L205.562 43.8516L206.559 44.8477L207.438 45.9023L208.258 47.0156L209.02 48.2461L209.723 49.4766L209.664 50.9414L208.668 51.9375L207.203 51.9375L206.207 50.8828L205.387 48.7148L204.859 47.6016L204.273 46.5469L202.867 44.4961L201.227 42.4453L200.348 41.4492L199.293 40.4531L199.586 39.9844ZM230.055 52.9922L233.219 49.8281L236.969 52.9922L236.969 54.2227L215.816 54.2227L215.758 60.1992L214.996 66.3516L214.527 68.1094L233.219 68.1094L236.383 64.9453L240.133 68.1094L240.133 69.3398L216.402 69.3398L217.34 71.6836L218.688 74.2031L220.27 76.5469L222.145 78.832L224.312 81L226.832 82.9922L229.586 84.9258L232.75 86.8008L236.207 88.5L241.949 90.9609L238.375 93.9492L234.449 92.0156L230.875 90.0234L227.652 87.7969L224.781 85.5117L222.262 83.0508L220.094 80.4727L218.395 77.7773L217.047 75.0234L216.109 72.0938L215.699 69.3398L214.234 69.3398L213.648 71.918L211.656 76.8984L209.02 81.3516L205.797 85.1602L201.988 88.3242L197.652 90.8438L192.73 92.7188L187.281 93.8906L187.164 93.3047L192.32 91.5469L196.891 89.3203L200.758 86.6836L204.098 83.5195L206.793 79.8281L208.961 75.7266L210.602 71.0391L210.953 69.3398L188.16 69.3398L188.16 68.1094L211.188 68.1094L211.656 65.8242L212.125 60.0234L212.125 54.2227L191.324 54.2227L191.324 52.9922L217.164 52.9922L216.93 52.8164L221.207 45.5508L222.555 43.0312L223.668 40.6875L224.137 39.5156L224.254 39.1641L227.535 41.1562L228.121 42.0938L226.832 42.3281L225.25 44.6719L224.371 45.9023L222.32 48.3047L220.035 50.7656L218.746 51.9961L217.516 52.9922L230.055 52.9922ZM269.43 72.5625L270.66 76.2539L272.242 79.418L272.77 80.1211L273.121 78.7148L273.883 75.0234L274.586 70.9805L275.113 66.5859L275.465 62.6016L272.711 62.6016L271.539 66.7031L267.379 67.5234L273.648 45.0234L267.438 45.0234L267.438 43.793L273.883 43.793L275.816 42.2109L279.273 45.0234L277.691 46.3125L277.281 46.0781L273.062 61.3125L275.523 61.3125L277.398 59.7305L280.621 62.4258L280.621 61.957L286.48 61.957L286.48 55.3945L276.578 55.3945L276.578 54.1055L286.48 54.1055L286.48 47.543L280.621 47.543L280.621 46.3125L286.48 46.3125L286.48 40.3359L290.23 40.9805L291.227 41.625L290.23 42.2695L290.23 46.3125L293.805 46.3125L295.68 44.7305L299.195 47.543L297.613 48.832L297.613 54.1055L298.082 54.1055L299.488 52.2305L301.363 54.1055L301.363 55.3945L297.613 55.3945L297.613 64.4766L293.805 66.3516L293.805 63.2461L290.23 63.2461L290.23 70.7461L292.223 70.7461L295.328 67.582L299.137 70.7461L299.137 72.0352L290.23 72.0352L290.23 78.5391L293.863 78.5391L296.969 75.4336L300.777 78.5391L300.777 79.8281L290.23 79.8281L290.23 86.0977L286.48 87.9727L286.48 79.8281L277.633 79.8281L277.633 78.5391L286.48 78.5391L286.48 72.0352L279.039 72.0352L279.039 70.7461L286.48 70.7461L286.48 63.2461L280.621 63.2461L280.621 62.7773L279.273 63.832L279.098 63.832L278.688 67.0547L277.926 71.5078L276.988 75.668L275.934 79.4766L274.879 82.6406L276.637 84.2812L279.449 86.0391L282.73 87.4453L286.539 88.3828L290.875 88.9102L295.68 89.0273L301.012 88.7344L304.469 88.4414L301.363 92.8359L295.68 93.0117L290.465 92.6602L285.836 91.7812L281.676 90.4922L277.984 88.6172L274.938 86.332L273.824 85.043L273.414 85.9805L271.891 88.6758L270.191 90.9609L268.375 92.7773L266.383 94.125L266.09 93.7148L267.496 91.957L268.844 89.9648L270.074 87.6797L271.246 85.043L272.008 82.7578L270.602 80.2969L269.43 76.6641L268.844 72.6797L269.43 72.5625ZM293.805 55.3945L290.23 55.3945L290.23 61.957L293.805 61.957L293.805 55.3945ZM293.805 54.1055L293.805 47.543L290.23 47.543L290.23 54.1055L293.805 54.1055ZM256.363 94.0078L253.609 91.4297L254.078 91.0195L255.777 89.9648L255.777 72.7383L247.75 72.7383L247.75 71.5078L255.777 71.5078L255.777 59.9648L251.852 59.9648L251.852 58.7344L261.168 58.7344L263.746 55.8633L266.91 58.7344L266.91 59.9648L259.586 59.9648L259.586 71.5078L261.168 71.5078L264.273 68.3438L268.082 71.5078L268.082 72.7383L259.586 72.7383L259.586 87.2695L265.68 82.9336L267.672 81.5859L268.023 81.9961L264.977 85.4531L257.418 93.0703L257.477 94.3594L256.363 94.0078ZM262.105 48.4219L264.684 45.5508L267.848 48.4219L267.848 49.6523L254.488 49.6523L253.082 52.8164L250.797 57.2109L249.566 59.3789L248.219 61.4883L246.754 63.5391L246.285 63.2461L249.801 54.1055L251.324 49.5352L252.73 45.0234L253.785 40.4531L253.961 39.9258L257.477 41.4492L258.238 42.2695L257.066 42.6797L255.895 46.0781L255.016 48.3047L255.016 48.4219L262.105 48.4219ZM310.445 41.8008L311.676 42.1523L312.906 42.5039L314.02 42.9141L315.074 43.4414L316.129 44.0859L317.008 44.7305L317.887 45.4922L318.648 46.3125L319.352 47.25L319.938 48.2461L319.938 49.6523L318.883 50.707L317.477 50.707L316.48 49.6523L316.188 48.8906L315.895 48.1289L315.543 47.3672L315.074 46.6641L314.488 45.9023L313.082 44.4375L311.324 42.9727L310.211 42.3281L310.445 41.8008ZM354.449 87.7383L354.801 87.6797L355.094 87.6797L355.27 87.6211L355.445 87.5625L355.504 87.4453L355.562 87.3281L355.621 87.1523L355.68 86.8594L355.68 86.4492L355.68 44.4961L326.734 44.4961L326.734 43.207L355.68 43.207L357.613 41.625L361.07 44.4961L359.488 45.7266L359.488 86.4492L359.43 87.2695L359.312 88.0898L359.02 88.8516L358.668 89.4961L358.141 90.1992L357.496 90.668L356.793 91.0781L356.031 91.3125L355.27 91.4883L354.449 91.4883L354.449 89.6133L348.121 88.6758L348.121 87.7383L354.449 87.7383ZM346.012 52.1719L349.176 49.0664L352.926 52.1719L352.926 53.4609L327.32 53.4609L327.32 52.1719L346.012 52.1719ZM344.312 76.8984L334.527 76.8984L334.527 80.707L330.719 82.582L330.719 58.0898L334.527 60.0234L344.312 60.0234L346.246 58.4414L349.703 61.2539L348.121 62.543L348.121 78.832L344.312 80.707L344.312 76.8984ZM344.312 75.668L344.312 61.2539L334.527 61.2539L334.527 75.668L344.312 75.668ZM317.594 86.5078L316.656 86.9766L316.656 55.1602L307.516 55.1602L307.516 53.9297L316.656 53.9297L318.59 52.3477L322.047 55.1602L320.465 56.4492L320.465 83.8125L328.141 78.8906L328.492 79.3008L320.758 87.2109L319.703 88.3828L319.41 88.793L317.594 86.5078ZM414.156 88.5586L417.262 85.4531L421.07 88.5586L421.07 89.8477L394.586 89.8477L394.586 92.0156L390.836 93.9492L390.836 55.6875L389.488 57.3867L387.73 59.2617L385.914 61.0195L384.039 62.6016L383.629 62.1914L387.789 56.1562L390.367 51.8203L390.836 50.9414L390.836 50.7656L390.895 50.8242L392.652 47.3086L394.703 42.5039L395.582 39.9844L395.758 39.5742L399.156 41.332L399.801 42.2695L398.57 42.5625L396.754 46.3711L395.465 48.7734L394.059 51.0586L393.414 52.0547L394.586 52.6406L403.609 52.6406L405.309 48.7734L408.59 41.6836L409 40.6875L409.176 40.3945L412.34 42.5039L412.867 43.5L411.578 43.6172L408.707 47.543L406.012 51L404.547 52.6406L412.75 52.6406L415.914 49.5352L419.723 52.6406L419.723 53.9297L407.242 53.9297L407.242 64.0078L412.105 64.0078L415.211 60.8438L419.02 64.0078L419.02 65.2383L407.242 65.2383L407.242 75.668L412.105 75.668L415.211 72.5039L419.02 75.668L419.02 76.8984L407.242 76.8984L407.242 88.5586L414.156 88.5586ZM403.434 88.5586L403.434 76.8984L394.586 76.8984L394.586 88.5586L403.434 88.5586ZM403.434 75.668L403.434 65.2383L394.586 65.2383L394.586 75.668L403.434 75.668ZM403.434 64.0078L403.434 53.9297L394.586 53.9297L394.586 64.0078L403.434 64.0078ZM370.328 74.9062L370.094 76.0781L369.156 75.5508L366.988 72.3867L375.484 68.6367L375.484 53.3438L367.809 53.3438L367.809 52.1133L375.484 52.1133L375.484 39.75L379.293 40.3945L380.23 41.0391L379.293 41.625L379.293 52.1133L380.23 52.1133L383.395 48.9492L387.145 52.1133L387.145 53.3438L379.293 53.3438L379.293 67.0547L385.035 64.5938L387.027 63.8906L387.262 64.3594L385.621 65.6484L380.348 69.1641L379.293 69.8086L379.293 89.4961L379.234 90.2578L379.117 91.0781L378.824 91.8398L378.414 92.543L377.945 93.1875L377.301 93.6562L376.598 94.0664L375.836 94.3594L375.016 94.4766L374.254 94.5352L374.254 92.6602L367.926 91.7227L367.926 90.7266L374.254 90.7266L374.605 90.7266L374.898 90.668L375.191 90.5508L375.309 90.4336L375.426 90.1406L375.484 89.8477L375.484 89.4961L375.484 72.0352L370.328 74.9062ZM476.559 93.0117L470.875 90.5508L465.543 87.7383L460.797 84.5742L456.461 81L454.117 78.6562L449.664 82.6406L444.859 86.0391L439.527 89.0859L433.668 91.7227L427.281 93.8906L427.105 93.3047L433.199 90.6094L438.707 87.6211L443.688 84.3398L448.141 80.8242L452.066 76.8984L452.242 76.6641L449.254 72.9141L446.441 68.3438L444.156 63.4219L442.398 58.2656L441.227 52.9922L428.805 52.9922L428.805 51.7031L452.125 51.7031L452.125 39.1055L455.875 39.75L456.812 40.3945L455.875 41.0391L455.875 51.7031L473.219 51.7031L476.383 48.5977L480.133 51.7031L480.133 52.9922L465.602 52.9922L467.418 53.6367L468.238 54.457L467.066 54.9258L465.836 59.4375L463.727 64.8867L460.973 69.8672L457.75 74.5547L456.109 76.3711L458.57 78.5391L462.73 81.7031L467.418 84.5156L472.516 86.9766L478.023 89.1445L480.191 89.9062L476.559 93.0117ZM454.117 74.3789L455.406 72.7383L458.277 68.2852L460.621 63.4805L462.438 58.3828L463.727 52.9922L441.871 52.9922L443.629 57.7969L445.855 62.6602L448.434 67.1719L451.363 71.332L454.117 74.3789ZM490.152 42.5039L491.266 43.0312L492.379 43.5586L494.254 44.6719L495.133 45.3164L496.539 46.6641L497.125 47.4258L497.594 48.2461L498.004 49.125L497.711 50.5312L496.539 51.3516L495.133 51.1172L494.312 49.9453L494.254 49.418L494.195 48.832L494.02 48.2461L493.727 47.543L493.375 46.8984L492.848 46.1367L491.559 44.5547L490.797 43.7344L489.859 42.9727L490.152 42.5039ZM537.145 94.4766L533.98 92.25L531.109 89.7305L528.531 86.8008L526.246 83.5195L525.719 82.6406L524.371 84.3398L520.973 87.7969L517.105 90.7266L512.77 93.1875L508.023 95.1211L507.848 94.6523L512.184 92.1328L516.051 89.3789L519.566 86.2734L522.555 82.8164L524.371 80.1797L522.555 75.9609L521.207 71.7422L520.094 67.1133L519.332 62.1914L519.156 59.6719L517.398 62.8945L515.934 65.2383L514.352 67.4648L513.824 67.1719L515.875 62.1328L518.746 54.2812L519.566 51.5859L521.09 45.8438L521.734 42.9141L522.32 39.9258L522.496 39.3984L526.012 40.7461L526.832 41.5664L525.719 42.0352L524.312 46.7812L522.32 52.5234L521.793 53.8125L533.16 53.8125L536.324 50.707L540.074 53.8125L540.074 55.1016L535.445 55.1016L534.801 60.5508L533.629 66.1758L532.047 71.3906L529.938 76.1367L527.77 79.9453L528.883 81.7031L531.227 84.5742L533.629 86.9766L536.324 89.0859L540.66 91.7227L537.145 94.4766ZM526.129 77.1328L527.301 74.8477L529.059 70.3359L530.406 65.4141L531.285 60.082L531.695 55.1016L521.266 55.1016L520.035 57.8555L519.801 58.2656L520.621 62.0156L521.91 66.7031L523.375 70.9805L525.016 74.9648L526.129 77.1328ZM509.43 89.4961L508.785 88.6758L506.969 87.1523L505.738 86.4492L504.918 85.9805L502.633 88.5586L500.289 90.5508L497.594 92.1914L494.605 93.4805L491.383 94.3594L487.867 94.8281L487.809 94.3008L491.031 93.1875L493.961 91.8984L496.539 90.375L498.766 88.6758L500.758 86.6836L502.223 84.6914L501.285 84.3398L497.477 82.9922L496.891 82.8164L496.246 85.043L492.027 85.7461L495.719 73.793L486.578 73.793L486.578 72.5039L496.07 72.5039L498.707 63.7734L500.113 64.4766L500.113 57.5039L498.531 59.6719L497.242 61.1953L495.836 62.6016L494.371 63.9492L492.789 65.1797L491.09 66.3516L489.273 67.4062L487.34 68.3438L487.047 67.875L490.035 65.0625L492.672 62.25L493.844 60.7852L494.957 59.3203L495.953 57.8555L496.891 56.2734L497.711 54.6914L498.18 53.6367L487.867 53.6367L487.867 52.3477L500.113 52.3477L500.113 40.043L503.922 40.6875L504.859 41.332L503.922 41.9766L503.922 52.3477L504.859 52.3477L504.625 52.1719L509.605 43.207L510.602 41.2148L510.836 40.9219L513.824 43.207L514.293 44.2617L513.004 44.3203L510.777 46.957L508.082 49.7109L505.211 52.3477L509.605 52.3477L512.711 49.1836L516.52 52.3477L516.52 53.6367L503.922 53.6367L503.922 55.7461L505.914 56.2148L507.086 56.625L508.258 57.0938L509.254 57.6211L510.25 58.2656L511.188 59.0273L512.008 59.7891L512.711 60.7266L513.414 61.7227L513.473 63.1289L512.477 64.2422L511.07 64.2422L509.957 63.3047L509.723 62.543L508.902 61.0195L508.375 60.3164L507.789 59.5547L507.027 58.8516L506.266 58.1484L504.332 56.7422L503.922 56.5664L503.922 67.1719L501.227 68.5195L499.996 72.5039L511.48 72.5039L514.645 69.3398L518.395 72.5039L518.395 73.793L509.781 73.793L509.078 77.0742L507.965 80.4141L506.559 83.4609L506.441 83.5781L508.492 84.3984L509.898 85.1602L511.129 85.9805L512.184 86.918L512.652 88.2656L512.125 89.5547L510.777 90.082L509.43 89.4961ZM497.242 81.7617L497.711 81.8203L499.82 81.9961L501.812 82.3477L503.336 82.6992L503.746 81.9961L504.801 79.2422L505.562 76.1953L505.973 73.793L499.645 73.793L497.242 81.7617ZM500.113 53.9297L500.113 53.6367L499.527 53.6367L500.113 53.9297ZM593.219 91.4297L596.383 88.2656L600.133 91.4297L600.133 92.6602L548.512 92.6602L548.512 91.4297L572.125 91.4297L572.125 86.6836L553.551 86.6836L553.551 85.4531L572.125 85.4531L572.125 78.1875L560.113 78.1875L560.113 80.4141L556.363 82.2891L556.363 62.7188L560.113 64.6523L588.18 64.6523L590.055 63.0703L593.512 65.8828L591.93 67.1719L591.93 79.418L588.18 81.3516L588.18 78.1875L575.875 78.1875L575.875 85.4531Q581.852 85.4531 587.887 85.4531L590.992 82.2891L594.801 85.4531L594.801 86.6836L575.875 86.6836L575.875 91.4297L593.219 91.4297ZM572.125 76.8984L572.125 71.8594L560.113 71.8594L560.113 76.8984L572.125 76.8984ZM575.875 76.8984L588.18 76.8984L588.18 71.8594L575.875 71.8594L575.875 76.8984ZM572.125 70.6289L572.125 65.8828L560.113 65.8828L560.113 70.6289L572.125 70.6289ZM575.875 70.6289L588.18 70.6289L588.18 65.8828L575.875 65.8828L575.875 70.6289ZM592.281 60.1992L595.445 57.0938L599.195 60.1992L599.195 61.4883L548.805 61.4883L548.805 60.1992L592.281 60.1992ZM587.242 55.1602L561.402 55.1602L561.402 56.1562L557.594 58.0312L557.594 40.3945L561.402 42.2695L587.242 42.2695L589.117 40.6875L592.574 43.5586L590.992 44.7891L590.992 55.8047L587.242 57.6797L587.242 55.1602ZM587.242 53.9297L587.242 49.1836L561.402 49.1836L561.402 53.9297L587.242 53.9297ZM587.242 47.9531L587.242 43.5586L561.402 43.5586L561.402 47.9531L587.242 47.9531ZM646.715 53.8711L648.414 54.75L650.055 55.8047L651.52 56.8008L652.926 57.9141L654.156 59.0859L655.328 60.1992L657.32 62.6602L658.199 63.8906L658.961 65.1797L658.961 66.6445L658.023 67.6992L656.559 67.6992L655.504 66.7617L655.035 65.5898L654.449 64.4766L653.805 63.3047L653.043 62.0742L652.164 60.8438L650.113 58.3828L646.363 54.3398L646.715 53.8711ZM646.891 69.0469L647.184 68.6953L647.301 68.7539L648.824 67.4648L652.281 70.3359L650.699 71.5664L649.703 71.5664L647.594 74.5547L644.43 78.0117L641.031 81.2344L637.281 84.1055L641.09 86.0391L644.957 87.4453L649.059 88.5L653.453 89.2617L658.082 89.6719L661.539 89.8477L657.789 93.7734L652.867 93.1875L648.18 92.1328L643.844 90.7266L639.742 88.9102L635.934 86.7422L634.586 85.7461L633.18 86.625L628.785 88.8516L624.098 90.7266L619.117 92.25L613.785 93.4219L608.219 94.1836L608.102 93.6562L613.551 92.25L618.59 90.6094L623.336 88.793L627.73 86.6836L631.773 84.3398L632.301 83.9883L629.312 81.2344L626.5 77.8945L623.98 74.1445L621.988 70.3359L615.719 70.3359L615.719 69.0469L626.441 69.0469L626.441 49.5352L609.449 49.5352L609.449 48.2461L632.125 48.2461L632.125 39.75L635.875 40.3945L636.812 41.0391L635.875 41.625L635.875 48.2461L652.926 48.2461L656.031 45.082L659.84 48.2461L659.84 49.5352L642.496 49.5352L642.496 69.0469L646.891 69.0469ZM634.586 82.4062L635.523 81.7617L638.922 78.8906L642.027 75.7266L644.723 72.3281L646.07 70.3359L622.809 70.3359L625.094 73.4414L627.906 76.6641L630.895 79.5938L634.059 82.1133L634.586 82.4062ZM618.883 53.4023L619.059 53.0508L622.34 54.9844L622.926 55.9219L621.695 56.1562L620.406 58.207L619.293 59.7891L616.832 62.9531L613.902 66.0586L612.32 67.582L610.504 69.1055L608.688 70.5117L608.277 70.1016L612.379 64.7109L614.664 61.3711L616.656 58.0898L618.238 54.9844L618.883 53.4023ZM638.746 69.0469L638.746 49.5352L630.191 49.5352L630.191 69.0469L638.746 69.0469ZM720.25 87.7969L721.363 88.5L722.125 89.6719L721.363 90.7852L720.191 91.5469L698.98 91.5469L698.16 91.4883L697.398 91.3711L696.637 91.0781L695.875 90.668L695.289 90.1992L694.762 89.5547L694.352 88.8516L694.117 88.0898L693.941 87.2695L693.941 86.5078L693.941 40.5703L697.691 41.2148L698.688 41.8594L697.691 42.4453L697.691 64.5352L702.555 62.1914L707.066 59.7305L711.461 56.9766L715.797 53.8711L717.965 52.1719L717.965 52.1133L720.25 55.1602L720.309 56.2734L719.137 55.9219L715.504 58.2656L713.102 59.6719L708.297 62.1328L705.836 63.1875L703.375 64.125L700.914 64.9453L698.395 65.5312L697.691 65.707L697.691 86.8594L697.809 87.1523L697.867 87.3281L697.926 87.4453L697.926 87.5039L697.984 87.5625L698.277 87.6797L698.57 87.7383L698.98 87.7383L718.375 87.7383L720.191 79.8867L720.836 79.8867L720.25 87.7969ZM681.695 59.6719L681.695 92.3672L677.945 94.3008L677.945 60.2578L675.191 63.7148L672.672 66.5859L670.035 69.3398L667.281 72.0352L666.871 71.625L673.551 62.4844L675.66 59.3203L679.586 52.9336L683.277 46.3125L686.617 39.457L686.734 39.1055L690.016 41.0977L690.543 42.0938L689.371 42.2695L686.207 47.9531L684.215 51.293L682.047 54.5156L679.879 57.6797L679.586 58.0312L681.695 58.3828L682.633 59.0273L681.695 59.6719Z">
</path>
</g>
<g >
<path     fill="#000000"  d="M267.012 153.194Q265.673 153.194 264.558 152.525Q263.443 151.856 262.785 150.473Q262.127 149.09 262.127 147.06Q262.127 145.164 262.908 143.603Q263.688 142.041 265.149 141.138Q266.61 140.235 268.596 140.235Q269.733 140.235 270.67 140.48L270.67 136.309L268.395 136.041L268.395 135.082L272.41 134.68L272.477 134.68L272.968 135.037L272.968 151.811L274.261 151.811L274.261 152.838Q273.548 152.994 273.023 153.083Q272.499 153.172 271.919 153.172Q271.339 153.172 271.094 152.971Q270.848 152.771 270.848 152.124L270.848 151.41Q270.224 152.168 269.209 152.681Q268.194 153.194 267.012 153.194ZM267.904 151.611Q268.774 151.611 269.532 151.22Q270.291 150.83 270.67 150.317L270.67 142.153Q270.492 141.885 269.834 141.673Q269.176 141.462 268.439 141.462Q266.7 141.462 265.662 142.789Q264.625 144.116 264.625 146.882Q264.625 149.291 265.54 150.451Q266.454 151.611 267.904 151.611ZM281.533 153.194Q278.834 153.194 277.418 151.432Q276.001 149.67 276.001 146.726Q276.001 144.785 276.737 143.313Q277.473 141.841 278.801 141.038Q280.128 140.235 281.823 140.235Q283.897 140.235 285.046 141.383Q286.195 142.532 286.262 144.674Q286.262 146.034 286.106 146.748L278.433 146.748Q278.477 148.956 279.459 150.306Q280.44 151.655 282.247 151.655Q283.139 151.655 284.109 151.332Q285.08 151.008 285.615 150.562L286.039 151.544Q285.392 152.213 284.121 152.704Q282.849 153.194 281.533 153.194ZM283.808 145.566Q283.875 145.097 283.875 144.607Q283.853 143.157 283.262 142.32Q282.671 141.484 281.399 141.484Q280.105 141.484 279.336 142.421Q278.566 143.358 278.455 145.566L283.808 145.566ZM293.668 153.194Q290.968 153.194 289.552 151.432Q288.136 149.67 288.136 146.726Q288.136 144.785 288.872 143.313Q289.608 141.841 290.935 141.038Q292.262 140.235 293.957 140.235Q296.032 140.235 297.181 141.383Q298.329 142.532 298.396 144.674Q298.396 146.034 298.24 146.748L290.567 146.748Q290.612 148.956 291.593 150.306Q292.575 151.655 294.381 151.655Q295.274 151.655 296.244 151.332Q297.214 151.008 297.75 150.562L298.173 151.544Q297.526 152.213 296.255 152.704Q294.984 153.194 293.668 153.194ZM295.943 145.566Q296.01 145.097 296.01 144.607Q295.987 143.157 295.396 142.32Q294.805 141.484 293.534 141.484Q292.24 141.484 291.47 142.421Q290.701 143.358 290.589 145.566L295.943 145.566ZM312.382 146.324Q312.382 148.22 311.602 149.793Q310.821 151.365 309.371 152.28Q307.921 153.194 305.98 153.194Q305.445 153.194 304.82 153.105Q304.196 153.016 303.817 152.882L303.884 154.756L303.884 157.009L306.203 157.254L306.203 158.347L299.98 158.347L299.98 157.254L301.586 157.009L301.586 142.287L299.958 141.885L299.958 140.681L303.125 140.279L303.17 140.279L303.638 140.681L303.638 141.997Q304.307 141.261 305.3 140.748Q306.293 140.235 307.52 140.235Q308.836 140.235 309.94 140.882Q311.044 141.528 311.713 142.889Q312.382 144.25 312.382 146.324ZM306.605 141.796Q305.757 141.796 305.021 142.153Q304.285 142.51 303.884 142.934L303.884 151.343Q304.04 151.611 304.676 151.823Q305.311 152.035 306.07 152.035Q307.787 152.035 308.847 150.674Q309.906 149.313 309.906 146.57Q309.906 144.161 308.981 142.978Q308.055 141.796 306.605 141.796ZM316.107 142.041L314.011 142.041L314.011 141.015L316.107 140.592L316.107 139.543Q316.107 138.16 316.832 137Q317.557 135.84 318.728 135.16Q319.899 134.48 321.215 134.48Q321.974 134.48 322.531 134.68L322.531 136.911Q322.331 136.733 321.74 136.565Q321.148 136.398 320.435 136.398Q319.386 136.398 318.907 136.945Q318.427 137.491 318.427 138.829L318.427 140.592L321.505 140.592L321.505 142.041L318.427 142.041L318.427 151.678L320.903 151.856L320.903 152.949L314.211 152.949L314.211 151.856L316.107 151.655L316.107 142.041ZM323.245 149.603Q323.245 147.506 325.342 146.514Q327.439 145.521 330.651 145.454L330.651 144.83Q330.651 143.781 330.428 143.179Q330.205 142.577 329.658 142.298Q329.112 142.019 328.108 142.019Q326.97 142.019 326.067 142.343Q325.164 142.666 324.271 143.134L323.714 141.975Q324.004 141.729 324.784 141.328Q325.565 140.926 326.591 140.614Q327.617 140.302 328.643 140.302Q330.227 140.302 331.153 140.737Q332.078 141.172 332.48 142.131Q332.881 143.09 332.881 144.696L332.881 151.856L334.197 151.856L334.197 152.838Q333.751 152.949 333.071 153.061Q332.391 153.172 331.878 153.172Q331.253 153.172 331.03 152.983Q330.807 152.793 330.807 152.146L330.807 151.41Q330.138 152.079 329.167 152.637Q328.197 153.194 326.97 153.194Q325.364 153.194 324.305 152.269Q323.245 151.343 323.245 149.603ZM327.929 151.678Q328.509 151.678 329.268 151.321Q330.026 150.964 330.651 150.473L330.651 146.636Q328.219 146.636 326.981 147.384Q325.743 148.131 325.743 149.336Q325.743 150.54 326.335 151.109Q326.926 151.678 327.929 151.678ZM336.941 136.309L335.201 136.063L335.201 135.104L338.748 134.68L338.77 134.68L339.261 135.015L339.261 145.923L339.216 147.239L344.369 141.908L342.696 141.595L342.696 140.569L348.094 140.569L348.094 141.595L346.332 141.908L343.053 145.097L347.291 151.678L348.674 151.856L348.674 152.949L343.254 152.949L343.254 151.856L344.659 151.655L341.514 146.48L339.216 148.756L339.261 149.893L339.261 151.655L340.845 151.856L340.845 152.949L335.536 152.949L335.536 151.856L336.941 151.655L336.941 136.309ZM354.63 153.194Q351.931 153.194 350.514 151.432Q349.098 149.67 349.098 146.726Q349.098 144.785 349.834 143.313Q350.57 141.841 351.897 141.038Q353.224 140.235 354.92 140.235Q356.994 140.235 358.143 141.383Q359.292 142.532 359.359 144.674Q359.359 146.034 359.202 146.748L351.529 146.748Q351.574 148.956 352.555 150.306Q353.537 151.655 355.344 151.655Q356.236 151.655 357.206 151.332Q358.176 151.008 358.712 150.562L359.136 151.544Q358.489 152.213 357.217 152.704Q355.946 153.194 354.63 153.194ZM356.905 145.566Q356.972 145.097 356.972 144.607Q356.95 143.157 356.358 142.32Q355.767 141.484 354.496 141.484Q353.202 141.484 352.433 142.421Q351.663 143.358 351.552 145.566L356.905 145.566Z">
</path>
</g>
<g >
<path     fill="#000000"  d="M441.012 155.194Q439.673 155.194 438.558 154.525Q437.443 153.856 436.785 152.473Q436.127 151.09 436.127 149.06Q436.127 147.164 436.908 145.603Q437.688 144.041 439.149 143.138Q440.61 142.235 442.596 142.235Q443.733 142.235 444.67 142.48L444.67 138.309L442.395 138.041L442.395 137.082L446.41 136.68L446.477 136.68L446.968 137.037L446.968 153.811L448.261 153.811L448.261 154.838Q447.548 154.994 447.023 155.083Q446.499 155.172 445.919 155.172Q445.339 155.172 445.094 154.971Q444.848 154.771 444.848 154.124L444.848 153.41Q444.224 154.168 443.209 154.681Q442.194 155.194 441.012 155.194ZM441.904 153.611Q442.774 153.611 443.532 153.22Q444.291 152.83 444.67 152.317L444.67 144.153Q444.492 143.885 443.834 143.673Q443.176 143.462 442.439 143.462Q440.7 143.462 439.662 144.789Q438.625 146.116 438.625 148.882Q438.625 151.291 439.54 152.451Q440.454 153.611 441.904 153.611ZM455.533 155.194Q452.834 155.194 451.418 153.432Q450.001 151.67 450.001 148.726Q450.001 146.785 450.737 145.313Q451.473 143.841 452.801 143.038Q454.128 142.235 455.823 142.235Q457.897 142.235 459.046 143.383Q460.195 144.532 460.262 146.674Q460.262 148.034 460.106 148.748L452.433 148.748Q452.477 150.956 453.459 152.306Q454.44 153.655 456.247 153.655Q457.139 153.655 458.109 153.332Q459.08 153.008 459.615 152.562L460.039 153.544Q459.392 154.213 458.121 154.704Q456.849 155.194 455.533 155.194ZM457.808 147.566Q457.875 147.097 457.875 146.607Q457.853 145.157 457.262 144.32Q456.671 143.484 455.399 143.484Q454.105 143.484 453.336 144.421Q452.566 145.357 452.455 147.566L457.808 147.566ZM464.255 153.165Q464.478 153.499 465.203 153.767Q465.928 154.035 466.731 154.035Q468.002 154.035 468.604 153.544Q469.207 153.053 469.207 152.183Q469.207 151.581 468.827 151.135Q468.448 150.689 467.768 150.343Q467.088 149.997 465.816 149.506Q464.099 148.86 463.307 147.956Q462.515 147.053 462.515 145.581Q462.515 144.599 463.106 143.863Q463.697 143.127 464.734 142.714Q465.771 142.302 467.043 142.302Q468.069 142.302 468.839 142.458Q469.608 142.614 470.077 142.77Q470.545 142.926 470.701 142.971L470.701 145.737L469.34 145.737L468.894 144.086Q468.76 143.818 468.181 143.629Q467.601 143.439 466.887 143.439Q465.883 143.439 465.27 143.885Q464.656 144.331 464.656 145.09Q464.656 145.759 464.98 146.194Q465.303 146.629 465.794 146.897Q466.285 147.164 467.132 147.521L467.578 147.7Q468.827 148.19 469.608 148.636Q470.389 149.083 470.913 149.808Q471.437 150.532 471.437 151.581Q471.437 153.232 470.155 154.213Q468.872 155.194 466.641 155.194Q465.548 155.194 464.355 154.893Q463.162 154.592 462.403 154.28L462.403 151.425L463.853 151.425L464.255 153.165ZM473.445 151.603Q473.445 149.506 475.542 148.514Q477.638 147.521 480.85 147.454L480.85 146.83Q480.85 145.781 480.627 145.179Q480.404 144.577 479.858 144.298Q479.311 144.019 478.307 144.019Q477.17 144.019 476.266 144.343Q475.363 144.666 474.471 145.134L473.913 143.975Q474.203 143.729 474.984 143.328Q475.765 142.926 476.791 142.614Q477.817 142.302 478.843 142.302Q480.427 142.302 481.352 142.737Q482.278 143.172 482.679 144.131Q483.081 145.09 483.081 146.696L483.081 153.856L484.397 153.856L484.397 154.838Q483.951 154.949 483.271 155.061Q482.59 155.172 482.077 155.172Q481.453 155.172 481.23 154.983Q481.006 154.793 481.006 154.146L481.006 153.41Q480.337 154.079 479.367 154.637Q478.397 155.194 477.17 155.194Q475.564 155.194 474.504 154.269Q473.445 153.343 473.445 151.603ZM478.129 153.678Q478.709 153.678 479.467 153.321Q480.226 152.964 480.85 152.473L480.85 148.636Q478.419 148.636 477.181 149.384Q475.943 150.131 475.943 151.335Q475.943 152.54 476.534 153.109Q477.125 153.678 478.129 153.678ZM487.297 144.287L485.691 143.885L485.691 142.681L488.88 142.279L488.947 142.279L489.416 142.681L489.416 143.618L489.394 144.153Q490.197 143.439 491.513 142.859Q492.829 142.279 494.033 142.279Q495.438 142.279 496.208 142.815Q496.978 143.35 497.29 144.454Q497.602 145.558 497.602 147.432L497.602 153.678L499.164 153.834L499.164 154.949L493.877 154.949L493.877 153.856L495.26 153.678L495.26 147.41Q495.26 146.094 495.082 145.346Q494.903 144.599 494.412 144.231Q493.922 143.863 492.985 143.863Q492.182 143.863 491.267 144.265Q490.353 144.666 489.639 145.201L489.639 153.655L491.156 153.856L491.156 154.949L485.891 154.949L485.891 153.856L487.297 153.655L487.297 144.287ZM504.584 155.172Q503.312 155.172 502.688 154.592Q502.063 154.012 502.063 152.607L502.063 144.041L500.457 144.041L500.457 143.038Q500.569 143.015 501.082 142.882Q501.595 142.748 501.773 142.636Q502.13 142.435 502.331 141.833Q502.509 141.409 502.755 140.473Q503 139.536 503.045 139.357L504.361 139.357L504.405 142.569L508.131 142.569L508.131 144.041L504.405 144.041L504.405 150.889Q504.405 152.161 504.484 152.674Q504.562 153.187 504.818 153.343Q505.075 153.499 505.699 153.499Q506.301 153.499 507.026 153.343Q507.751 153.187 508.153 153.008L508.487 154.012Q507.952 154.414 506.759 154.793Q505.565 155.172 504.584 155.172ZM512.48 140.339Q511.766 140.339 511.41 139.937Q511.053 139.536 511.053 138.911Q511.053 138.197 511.488 137.729Q511.923 137.26 512.681 137.26Q513.439 137.26 513.796 137.662Q514.153 138.063 514.153 138.688Q514.153 139.446 513.718 139.893Q513.283 140.339 512.503 140.339L512.48 140.339ZM511.588 144.287L509.893 143.885L509.893 142.703L513.35 142.279L513.395 142.279L513.908 142.681L513.908 153.678L515.692 153.856L515.692 154.949L509.781 154.949L509.781 153.856L511.588 153.655L511.588 144.287ZM519.35 153.165Q519.573 153.499 520.298 153.767Q521.023 154.035 521.826 154.035Q523.098 154.035 523.7 153.544Q524.302 153.053 524.302 152.183Q524.302 151.581 523.923 151.135Q523.544 150.689 522.864 150.343Q522.183 149.997 520.912 149.506Q519.194 148.86 518.402 147.956Q517.611 147.053 517.611 145.581Q517.611 144.599 518.202 143.863Q518.793 143.127 519.83 142.714Q520.867 142.302 522.139 142.302Q523.165 142.302 523.934 142.458Q524.704 142.614 525.172 142.77Q525.641 142.926 525.797 142.971L525.797 145.737L524.436 145.737L523.99 144.086Q523.856 143.818 523.276 143.629Q522.696 143.439 521.983 143.439Q520.979 143.439 520.365 143.885Q519.752 144.331 519.752 145.09Q519.752 145.759 520.075 146.194Q520.399 146.629 520.89 146.897Q521.38 147.164 522.228 147.521L522.674 147.7Q523.923 148.19 524.704 148.636Q525.485 149.083 526.009 149.808Q526.533 150.532 526.533 151.581Q526.533 153.232 525.25 154.213Q523.968 155.194 521.737 155.194Q520.644 155.194 519.451 154.893Q518.257 154.592 517.499 154.28L517.499 151.425L518.949 151.425L519.35 153.165Z">
</path>
</g>
<g >
<path     fill="#000000"  d="M599.145 137.104L602.714 136.68L602.759 136.68L603.272 137.015L603.272 143.729Q603.941 143.082 604.867 142.658Q605.793 142.235 606.93 142.235Q608.269 142.235 609.373 142.882Q610.477 143.528 611.135 144.889Q611.793 146.25 611.793 148.324Q611.793 150.243 611.001 151.804Q610.209 153.365 608.737 154.28Q607.265 155.194 605.324 155.194Q603.785 155.194 602.514 154.893Q601.242 154.592 600.974 154.347L600.974 138.287L599.145 138.041L599.145 137.104ZM606.016 143.818Q605.168 143.818 604.443 144.209Q603.718 144.599 603.272 145.09L603.272 153.298Q603.406 153.611 604.042 153.8Q604.677 153.99 605.48 153.99Q607.198 153.99 608.246 152.607Q609.295 151.224 609.295 148.57Q609.295 146.183 608.38 145.001Q607.466 143.818 606.016 143.818ZM616.366 140.339Q615.652 140.339 615.295 139.937Q614.938 139.536 614.938 138.911Q614.938 138.197 615.373 137.729Q615.808 137.26 616.566 137.26Q617.325 137.26 617.682 137.662Q618.039 138.063 618.039 138.688Q618.039 139.446 617.604 139.893Q617.169 140.339 616.388 140.339L616.366 140.339ZM615.473 144.287L613.778 143.885L613.778 142.703L617.236 142.279L617.28 142.279L617.793 142.681L617.793 153.678L619.578 153.856L619.578 154.949L613.667 154.949L613.667 153.856L615.473 153.655L615.473 144.287ZM625.979 155.194Q624.641 155.194 623.526 154.525Q622.411 153.856 621.753 152.473Q621.094 151.09 621.094 149.06Q621.094 147.164 621.875 145.603Q622.656 144.041 624.117 143.138Q625.578 142.235 627.563 142.235Q628.701 142.235 629.638 142.48L629.638 138.309L627.362 138.041L627.362 137.082L631.378 136.68L631.444 136.68L631.935 137.037L631.935 153.811L633.229 153.811L633.229 154.838Q632.515 154.994 631.991 155.083Q631.467 155.172 630.887 155.172Q630.307 155.172 630.061 154.971Q629.816 154.771 629.816 154.124L629.816 153.41Q629.192 154.168 628.177 154.681Q627.162 155.194 625.979 155.194ZM626.872 153.611Q627.742 153.611 628.5 153.22Q629.258 152.83 629.638 152.317L629.638 144.153Q629.459 143.885 628.801 143.673Q628.143 143.462 627.407 143.462Q625.667 143.462 624.63 144.789Q623.593 146.116 623.593 148.882Q623.593 151.291 624.507 152.451Q625.422 153.611 626.872 153.611ZM640.501 155.194Q637.802 155.194 636.385 153.432Q634.969 151.67 634.969 148.726Q634.969 146.785 635.705 145.313Q636.441 143.841 637.768 143.038Q639.095 142.235 640.791 142.235Q642.865 142.235 644.014 143.383Q645.163 144.532 645.23 146.674Q645.23 148.034 645.073 148.748L637.4 148.748Q637.445 150.956 638.426 152.306Q639.408 153.655 641.214 153.655Q642.107 153.655 643.077 153.332Q644.047 153.008 644.583 152.562L645.006 153.544Q644.36 154.213 643.088 154.704Q641.817 155.194 640.501 155.194ZM642.776 147.566Q642.843 147.097 642.843 146.607Q642.82 145.157 642.229 144.32Q641.638 143.484 640.367 143.484Q639.073 143.484 638.304 144.421Q637.534 145.358 637.422 147.566L642.776 147.566ZM648.486 144.287L646.88 143.885L646.88 142.681L650.07 142.279L650.137 142.279L650.605 142.681L650.605 143.618L650.583 144.153Q651.386 143.439 652.702 142.859Q654.018 142.279 655.223 142.279Q656.628 142.279 657.397 142.815Q658.167 143.35 658.479 144.454Q658.792 145.558 658.792 147.432L658.792 153.678L660.353 153.834L660.353 154.949L655.066 154.949L655.066 153.856L656.449 153.678L656.449 147.41Q656.449 146.094 656.271 145.346Q656.093 144.599 655.602 144.231Q655.111 143.863 654.174 143.863Q653.371 143.863 652.457 144.265Q651.542 144.666 650.828 145.201L650.828 153.655L652.345 153.856L652.345 154.949L647.081 154.949L647.081 153.856L648.486 153.655L648.486 144.287Z">
</path>
</g>
<g >
<path     fill="#000000"  d="M102.68 153.194Q99.9805 153.194 98.5641 151.432Q97.1476 149.67 97.1476 146.726Q97.1476 144.785 97.8837 143.313Q98.6198 141.841 99.947 141.038Q101.274 140.235 102.969 140.235Q105.044 140.235 106.193 141.383Q107.341 142.532 107.408 144.674Q107.408 146.034 107.252 146.748L99.579 146.748Q99.6236 148.956 100.605 150.306Q101.587 151.655 103.393 151.655Q104.286 151.655 105.256 151.332Q106.226 151.008 106.762 150.562L107.185 151.544Q106.538 152.213 105.267 152.704Q103.996 153.194 102.68 153.194ZM104.955 145.566Q105.022 145.097 105.022 144.607Q104.999 143.157 104.408 142.32Q103.817 141.484 102.546 141.484Q101.252 141.484 100.482 142.421Q99.7128 143.358 99.6013 145.566L104.955 145.566ZM110.955 136.309L109.148 136.063L109.148 135.104L112.74 134.68L112.784 134.68L113.275 135.015L113.275 151.678L115.171 151.856L115.171 152.949L109.148 152.949L109.148 151.856L110.955 151.655L110.955 136.309ZM122.242 153.194Q119.543 153.194 118.126 151.432Q116.71 149.67 116.71 146.726Q116.71 144.785 117.446 143.313Q118.182 141.841 119.509 141.038Q120.837 140.235 122.532 140.235Q124.606 140.235 125.755 141.383Q126.904 142.532 126.971 144.674Q126.971 146.034 126.815 146.748L119.141 146.748Q119.186 148.956 120.167 150.306Q121.149 151.655 122.956 151.655Q123.848 151.655 124.818 151.332Q125.789 151.008 126.324 150.562L126.748 151.544Q126.101 152.213 124.829 152.704Q123.558 153.194 122.242 153.194ZM124.517 145.566Q124.584 145.097 124.584 144.607Q124.562 143.157 123.971 142.32Q123.379 141.484 122.108 141.484Q120.814 141.484 120.045 142.421Q119.275 143.358 119.164 145.566L124.517 145.566ZM128.621 146.837Q128.621 144.986 129.346 143.491Q130.071 141.997 131.488 141.116Q132.904 140.235 134.889 140.235Q135.848 140.235 136.54 140.413Q137.231 140.592 138.191 140.904L138.101 144.339L136.652 144.339L136.161 142.064Q136.027 141.439 134.466 141.439Q132.904 141.439 132.001 142.699Q131.097 143.96 131.097 146.28Q131.097 148.912 132.112 150.284Q133.127 151.655 134.756 151.655Q135.692 151.655 136.529 151.365Q137.365 151.075 137.968 150.674L138.391 151.566Q137.789 152.191 136.618 152.693Q135.447 153.194 134.242 153.194Q132.413 153.194 131.153 152.369Q129.893 151.544 129.257 150.105Q128.621 148.666 128.621 146.837ZM144.146 153.172Q142.875 153.172 142.25 152.592Q141.626 152.012 141.626 150.607L141.626 142.041L140.02 142.041L140.02 141.038Q140.131 141.015 140.644 140.882Q141.157 140.748 141.336 140.636Q141.693 140.435 141.893 139.833Q142.072 139.409 142.317 138.473Q142.563 137.536 142.607 137.357L143.923 137.357L143.968 140.569L147.693 140.569L147.693 142.041L143.968 142.041L143.968 148.889Q143.968 150.161 144.046 150.674Q144.124 151.187 144.381 151.343Q144.637 151.499 145.262 151.499Q145.864 151.499 146.589 151.343Q147.314 151.187 147.715 151.008L148.05 152.012Q147.515 152.414 146.321 152.793Q145.128 153.172 144.146 153.172ZM152.043 138.339Q151.329 138.339 150.972 137.937Q150.615 137.536 150.615 136.911Q150.615 136.197 151.05 135.729Q151.485 135.26 152.243 135.26Q153.002 135.26 153.359 135.662Q153.716 136.063 153.716 136.688Q153.716 137.446 153.281 137.893Q152.846 138.339 152.065 138.339L152.043 138.339ZM151.15 142.287L149.455 141.885L149.455 140.703L152.913 140.279L152.957 140.279L153.47 140.681L153.47 151.678L155.255 151.856L155.255 152.949L149.344 152.949L149.344 151.856L151.15 151.655L151.15 142.287ZM156.838 146.726Q156.838 144.718 157.664 143.246Q158.489 141.774 159.839 141.004Q161.188 140.235 162.727 140.235Q165.538 140.235 166.954 142.019Q168.371 143.804 168.371 146.703Q168.371 148.733 167.545 150.205Q166.72 151.678 165.37 152.436Q164.021 153.194 162.482 153.194Q159.671 153.194 158.255 151.41Q156.838 149.625 156.838 146.726ZM162.616 151.923Q164.155 151.923 164.98 150.652Q165.805 149.38 165.805 146.882Q165.805 144.406 165.047 142.956Q164.289 141.506 162.616 141.506Q161.077 141.506 160.24 142.778Q159.404 144.049 159.404 146.547Q159.404 149.023 160.184 150.473Q160.965 151.923 162.616 151.923ZM171.739 142.287L170.133 141.885L170.133 140.681L173.323 140.279L173.389 140.279L173.858 140.681L173.858 141.618L173.836 142.153Q174.639 141.439 175.955 140.859Q177.271 140.279 178.475 140.279Q179.88 140.279 180.65 140.815Q181.42 141.35 181.732 142.454Q182.044 143.558 182.044 145.432L182.044 151.678L183.606 151.834L183.606 152.949L178.319 152.949L178.319 151.856L179.702 151.678L179.702 145.41Q179.702 144.094 179.524 143.346Q179.345 142.599 178.854 142.231Q178.364 141.863 177.427 141.863Q176.624 141.863 175.709 142.265Q174.795 142.666 174.081 143.201L174.081 151.655L175.598 151.856L175.598 152.949L170.334 152.949L170.334 151.856L171.739 151.655L171.739 142.287Z">
</path>
</g>
<g >
<path     fill="#000000"  d="M736.661 155.172Q735.389 155.172 734.765 154.592Q734.14 154.012 734.14 152.607L734.14 144.041L732.534 144.041L732.534 143.038Q732.646 143.015 733.159 142.882Q733.672 142.748 733.85 142.636Q734.207 142.435 734.408 141.833Q734.586 141.409 734.832 140.473Q735.077 139.536 735.122 139.357L736.438 139.357L736.482 142.569L740.207 142.569L740.207 144.041L736.482 144.041L736.482 150.889Q736.482 152.161 736.56 152.674Q736.638 153.187 736.895 153.343Q737.151 153.499 737.776 153.499Q738.378 153.499 739.103 153.343Q739.828 153.187 740.23 153.008L740.564 154.012Q740.029 154.414 738.835 154.793Q737.642 155.172 736.661 155.172ZM741.969 153.856L743.642 153.722L743.642 144.287L742.036 143.885L742.036 142.681L745.115 142.279L745.159 142.279L745.65 142.681L745.65 143.082L745.583 144.822L745.65 144.822Q745.873 144.443 746.453 143.841Q747.033 143.238 747.947 142.737Q748.862 142.235 749.933 142.235Q750.379 142.235 750.669 142.346L750.669 144.844Q750.513 144.733 750.167 144.633Q749.821 144.532 749.397 144.532Q747.546 144.532 745.962 145.67L745.962 153.7L748.795 153.878L748.795 154.949L741.969 154.949L741.969 153.856ZM762.29 155.15Q761.666 155.15 761.365 154.904Q761.063 154.659 761.063 154.101L761.063 153.343Q760.327 154.079 759.223 154.637Q758.119 155.194 757.004 155.194Q754.929 155.194 754.059 154.079Q753.189 152.964 753.189 150.399L753.189 143.93L751.94 143.573L751.94 142.592L755.063 142.302L755.085 142.302L755.509 142.569L755.509 150.22Q755.509 151.514 755.699 152.239Q755.888 152.964 756.368 153.31Q756.848 153.655 757.762 153.655Q758.654 153.655 759.435 153.276Q760.216 152.897 760.796 152.384L760.796 143.93L759.19 143.573L759.19 142.592L762.58 142.302L762.602 142.302L763.115 142.569L763.115 153.811L764.454 153.811L764.432 154.815Q763.807 154.971 763.35 155.061Q762.892 155.15 762.29 155.15ZM766.216 153.856L767.577 153.655L767.577 144.287L765.971 143.885L765.971 142.681L769.16 142.279L769.562 142.569L769.696 143.462L769.673 144.175Q770.454 143.462 771.804 142.87Q773.153 142.279 774.224 142.279Q775.428 142.279 776.164 142.681Q776.901 143.082 777.28 143.93Q777.994 143.328 779.276 142.803Q780.559 142.279 781.674 142.279Q783.057 142.279 783.838 142.803Q784.618 143.328 784.942 144.432Q785.265 145.536 785.265 147.387L785.265 153.655L786.871 153.856L786.871 154.949L781.563 154.949L781.563 153.856L782.945 153.655L782.945 147.454Q782.945 146.161 782.756 145.391Q782.566 144.621 782.042 144.242Q781.518 143.863 780.536 143.863Q779.8 143.863 778.975 144.186Q778.15 144.51 777.57 144.956Q777.771 145.826 777.771 147.432L777.771 153.655L779.354 153.856L779.354 154.949L773.956 154.949L773.956 153.856L775.428 153.655L775.428 147.41Q775.428 146.071 775.261 145.335Q775.094 144.599 774.625 144.231Q774.157 143.863 773.198 143.863Q772.395 143.863 771.491 144.265Q770.588 144.666 769.919 145.201L769.919 153.655L771.413 153.856L771.413 154.949L766.216 154.949L766.216 153.856ZM800.5 148.324Q800.5 150.22 799.72 151.793Q798.939 153.365 797.489 154.28Q796.039 155.194 794.099 155.194Q793.563 155.194 792.939 155.105Q792.314 155.016 791.935 154.882L792.002 156.756L792.002 159.009L794.322 159.254L794.322 160.347L788.098 160.347L788.098 159.254L789.704 159.009L789.704 144.287L788.076 143.885L788.076 142.681L791.243 142.279L791.288 142.279L791.756 142.681L791.756 143.997Q792.426 143.261 793.418 142.748Q794.411 142.235 795.638 142.235Q796.954 142.235 798.058 142.882Q799.162 143.528 799.831 144.889Q800.5 146.25 800.5 148.324ZM794.723 143.796Q793.875 143.796 793.139 144.153Q792.403 144.51 792.002 144.934L792.002 153.343Q792.158 153.611 792.794 153.823Q793.429 154.035 794.188 154.035Q795.905 154.035 796.965 152.674Q798.024 151.313 798.024 148.57Q798.024 146.161 797.099 144.978Q796.173 143.796 794.723 143.796Z">
</path>
</g>
<rect  x="46" y="135.461181640625" width="41.26605224609375" height="20.07537841796875" rx="22.3"    fill="#3B4CC0" >
</rect>
<rect  x="685" y="137.45004272460938" width="41.26605224609375" height="20.07537841796875" rx="22.3"    fill="#EE8468" >
</rect>
<rect  x="549" y="137.45001220703125" width="41.26605224609375" height="20.07537841796875" rx="22.3"    fill="#F2CBB7" >
</rect>
<rect  x="211" y="135.45999145507812" width="41.26605224609375" height="20.07537841796875" rx="22.3"    fill="#7B9FF9" >
</rect>
<rect  x="385" y="137.45999145507812" width="41.26605224609375" height="20.07537841796875" rx="22.3"    fill="#C0D4F5" >
</rect>
</svg>
